<?xml version="1.0" standalone="no"?>
<!DOCTYPE svg PUBLIC "-//W3C//DTD SVG 20010904//EN"
 "http://www.w3.org/TR/2001/REC-SVG-20010904/DTD/svg10.dtd">
<svg version="1.0" xmlns="http://www.w3.org/2000/svg"
 width="1340.000000pt" height="1340.000000pt" viewBox="0 0 1340.000000 1340.000000"
 preserveAspectRatio="xMidYMid meet">

<g transform="translate(0.000000,1340.000000) scale(0.100000,-0.100000)"
fill="#000000" stroke="none">
<path d="M6150 11660 c-195 -15 -383 -66 -577 -157 -27 -12 -38 -13 -67 -2
-27 10 -38 10 -49 1 -10 -9 -28 -9 -67 -2 -118 22 -216 3 -239 -47 -22 -49
-30 -168 -26 -393 11 -515 13 -1242 5 -1335 -14 -156 -24 -688 -14 -721 6 -20
10 28 14 164 l5 192 1369 0 c752 0 1371 -2 1375 -4 3 -2 4 -96 1 -208 -3 -111
-4 -205 -3 -207 2 -2 7 7 13 20 6 15 7 130 3 319 -9 433 -9 441 -12 1110 -1
338 -5 718 -9 843 l-7 229 -29 25 c-29 24 -34 25 -125 20 -53 -3 -106 -9 -118
-12 -18 -6 -23 -3 -23 10 0 14 -6 15 -32 10 -18 -4 -36 -12 -40 -18 -11 -17
-98 5 -267 67 -159 59 -272 84 -416 91 -175 9 -571 12 -665 5z m-30 -80 c0 -5
-2 -10 -4 -10 -3 0 -8 5 -11 10 -3 6 -1 10 4 10 6 0 11 -4 11 -10z m655 0 c3
-5 1 -10 -4 -10 -6 0 -11 5 -11 10 0 6 2 10 4 10 3 0 8 -4 11 -10z m70 -10 c3
-5 1 -10 -4 -10 -6 0 -11 5 -11 10 0 6 2 10 4 10 3 0 8 -4 11 -10z m-198 -6
c-3 -3 -12 -4 -19 -1 -8 3 -5 6 6 6 11 1 17 -2 13 -5z m113 -9 c0 -1 -8 -5
-18 -7 -11 -3 -19 0 -19 7 0 7 8 10 19 7 10 -2 18 -6 18 -7z m-300 1 c0 -3 -4
-8 -10 -11 -5 -3 -10 -1 -10 4 0 6 5 11 10 11 6 0 10 -2 10 -4z"/>
<path d="M5026 9748 c-32 -11 -74 -31 -93 -44 -19 -13 -43 -26 -54 -29 -10 -4
-19 -13 -19 -21 0 -8 -9 -14 -20 -14 -11 0 -20 -4 -20 -10 0 -5 9 -10 20 -10
11 0 20 3 20 8 0 4 38 25 85 46 47 22 85 44 85 48 0 5 4 6 10 3 5 -3 22 5 37
19 33 31 26 32 -51 4z"/>
<path d="M7928 9751 c18 -12 42 -21 53 -21 11 0 17 -4 14 -10 -3 -5 2 -10 13
-10 28 0 124 -49 117 -60 -3 -6 1 -10 9 -10 8 0 16 -6 19 -12 2 -7 3 -5 1 5
-2 15 2 17 29 12 l32 -7 -37 21 c-53 29 -217 98 -253 106 l-30 7 33 -21z"/>
<path d="M8185 9620 c-3 -5 -2 -10 4 -10 5 0 13 5 16 10 3 6 2 10 -4 10 -5 0
-13 -4 -16 -10z"/>
<path d="M4755 9589 c-27 -24 -40 -48 -56 -103 -12 -39 -32 -105 -45 -146 -31
-95 -30 -101 4 -54 16 21 36 45 46 53 26 22 54 82 71 153 19 75 27 128 20 128
-2 0 -20 -14 -40 -31z"/>
<path d="M8220 9600 c0 -20 11 -72 37 -169 9 -33 31 -75 56 -107 42 -53 65
-69 52 -36 -4 9 -18 67 -31 127 -30 136 -40 160 -72 185 -31 25 -42 25 -42 0z"/>
<path d="M4666 9128 c-8 -24 -27 -74 -41 -113 -14 -38 -50 -108 -79 -156 -56
-89 -89 -159 -151 -319 -20 -52 -39 -99 -42 -105 -4 -7 -3 -7 4 0 19 18 203
316 218 352 8 20 21 59 29 87 8 28 30 105 50 170 36 119 43 166 12 84z"/>
<path d="M8325 9130 c11 -53 92 -342 104 -370 5 -14 28 -54 50 -90 22 -36 58
-96 80 -135 69 -120 72 -114 17 35 -57 155 -76 196 -135 293 -21 34 -55 114
-75 177 -40 119 -53 150 -41 90z"/>
<path d="M6350 8938 c-732 -38 -1425 -458 -1806 -1094 -33 -55 -81 -143 -107
-196 -27 -54 -50 -98 -52 -98 -5 0 22 68 44 110 11 19 38 71 61 115 135 255
379 541 608 714 90 68 114 96 30 35 -251 -182 -469 -424 -630 -699 -144 -246
-219 -460 -292 -835 -2 -14 -2 16 1 65 3 53 19 146 39 225 19 74 34 137 34
140 -1 3 -9 -13 -20 -35 -25 -52 -25 -40 3 76 22 88 22 95 6 96 -10 1 -20 -8
-23 -23 -4 -13 -11 -24 -16 -24 -6 0 -10 -4 -10 -9 0 -5 -13 -31 -30 -58 -75
-121 -136 -403 -149 -688 -6 -125 -9 -151 -15 -117 -9 45 -26 57 -26 18 0 -25
-15 -36 -37 -29 -7 3 -13 12 -13 22 0 9 -5 22 -12 29 -10 10 -15 7 -25 -10
-12 -23 -12 -23 -13 7 -1 17 -4 24 -7 18 -9 -23 -23 -13 -23 16 0 16 6 31 14
34 15 6 11 47 -5 47 -5 0 -10 17 -10 38 -1 20 -6 1 -11 -43 -12 -106 -2 -327
22 -473 11 -64 20 -121 20 -127 0 -5 5 -3 9 5 5 8 6 35 1 60 -9 52 -6 62 18
53 14 -5 15 -3 5 8 -7 7 -13 21 -13 31 0 14 6 16 33 12 17 -3 38 -7 44 -9 17
-6 34 28 33 67 0 65 6 123 14 128 4 3 14 -6 21 -20 8 -14 14 -22 15 -18 0 4
11 3 25 -2 34 -13 53 -3 70 34 l13 31 1 -46 c3 -146 62 -439 124 -609 87 -239
218 -474 375 -670 47 -60 292 -310 303 -310 3 0 17 -11 30 -24 13 -13 44 -38
69 -55 132 -93 160 -111 167 -111 4 0 -22 20 -59 45 -62 41 -88 65 -73 65 4 0
39 -22 78 -49 82 -56 245 -151 309 -179 351 -159 614 -217 978 -216 230 1 389
21 585 74 355 97 699 291 958 538 37 36 70 62 74 58 5 -4 -11 -25 -34 -47 -23
-21 -39 -39 -34 -39 20 0 221 223 306 340 73 99 205 317 205 336 0 3 16 37 36
77 19 39 33 79 31 89 -3 9 1 19 7 21 14 5 76 194 100 302 36 161 64 389 67
550 1 33 3 51 6 40 8 -35 32 -46 64 -29 21 10 29 22 30 42 1 70 11 237 14 240
9 9 17 -353 11 -485 -7 -150 -7 -153 13 -153 13 0 21 -6 21 -17 0 -9 3 -14 6
-10 3 3 22 -3 42 -13 19 -11 39 -17 44 -14 4 3 8 -2 8 -10 0 -9 5 -16 10 -16
6 0 10 -8 11 -17 1 -24 18 38 31 114 10 63 28 77 28 22 0 -16 7 -46 16 -67 9
-20 18 -48 20 -61 10 -50 64 -125 64 -88 0 8 -7 20 -16 28 -15 12 -48 69 -40
69 2 0 18 -13 36 -30 32 -30 34 -30 134 -28 l101 1 -97 6 c-108 7 -137 23
-159 88 -13 42 -6 52 21 28 21 -19 42 -13 22 7 -22 22 -13 28 32 22 25 -4 75
-3 112 1 60 6 70 11 101 43 62 67 61 72 -10 50 -47 -15 -81 -19 -139 -16 -80
5 -108 17 -108 49 0 17 9 19 106 19 58 0 114 5 124 10 13 7 21 7 26 -1 4 -7
19 4 39 27 19 21 31 42 29 46 -3 4 -67 8 -142 8 -164 0 -185 4 -176 34 10 33
22 36 134 36 104 0 180 13 180 30 0 5 -9 11 -19 15 -10 3 -21 14 -24 24 -4 16
-18 18 -126 20 -137 2 -151 5 -151 32 0 26 30 39 91 39 61 0 62 8 1 11 -23 2
-42 4 -42 5 0 2 4 14 10 28 8 21 17 26 57 29 26 3 8 3 -40 1 l-88 -4 12 23 c6
12 18 29 25 37 13 16 9 60 -7 60 -4 0 -24 -21 -44 -46 -19 -26 -35 -44 -35
-40 0 20 44 87 75 114 33 29 41 32 106 32 39 0 80 -5 91 -11 16 -9 19 -8 16 2
-10 31 -153 39 -205 11 -36 -19 -113 -123 -113 -152 0 -33 -17 -23 -23 13 -5
35 -46 203 -55 227 -4 11 -7 9 -9 -7 -3 -13 -9 -20 -18 -17 -7 3 -16 -3 -20
-15 -8 -25 -21 -27 -34 -4 -8 15 -11 15 -26 3 -9 -7 -15 -25 -15 -39 3 -40 1
-47 -10 -31 -7 11 -10 5 -10 -25 -1 -39 -1 -40 -14 -15 -7 14 -17 47 -20 73
-17 115 -142 450 -206 551 -17 26 -30 49 -30 53 0 3 -24 29 -52 58 -55 54 -93
80 -106 71 -5 -3 -28 25 -52 60 -66 97 -68 88 -4 -13 102 -162 211 -407 263
-596 29 -103 71 -341 70 -390 -1 -39 -2 -37 -11 18 -48 310 -107 510 -217 740
-319 667 -939 1133 -1679 1261 -116 20 -347 31 -502 22z m218 -25 c-38 -2 -98
-2 -135 0 -38 2 -7 3 67 3 74 0 105 -1 68 -3z m-295 -10 c-7 -2 -19 -2 -25 0
-7 3 -2 5 12 5 14 0 19 -2 13 -5z m440 0 c-7 -2 -21 -2 -30 0 -10 3 -4 5 12 5
17 0 24 -2 18 -5z m80 -10 c-7 -2 -19 -2 -25 0 -7 3 -2 5 12 5 14 0 19 -2 13
-5z m-678 -13 c-16 -4 -39 -8 -50 -8 l-20 -1 20 9 c11 5 34 8 50 8 l30 0 -30
-8z m785 0 c20 -6 21 -8 5 -8 -11 0 -33 4 -50 8 -27 7 -27 8 -5 8 14 0 36 -4
50 -8z m-873 -16 c-3 -3 -12 -4 -19 -1 -8 3 -5 6 6 6 11 1 17 -2 13 -5z m963
-4 c12 -8 12 -10 -5 -9 -11 0 -29 4 -40 9 -18 8 -18 9 5 9 14 0 32 -4 40 -9z
m-1060 -20 c-14 -4 -34 -8 -45 -8 -16 0 -15 2 5 8 14 4 34 8 45 8 16 0 15 -2
-5 -8z m1160 -5 c46 -18 28 -18 -35 -1 -30 9 -40 14 -25 14 14 0 41 -6 60 -13z
m-1255 -20 c-16 -8 -37 -14 -45 -14 -8 0 1 7 20 14 46 18 64 17 25 0z m691
-16 c17 -19 17 -23 3 -47 -18 -33 -54 -40 -80 -16 -23 21 -24 47 -3 68 22 22
57 20 80 -5z m744 -21 c172 -62 409 -192 570 -311 178 -132 368 -330 492 -512
30 -44 58 -87 63 -95 16 -30 -31 26 -55 65 -44 72 -182 239 -270 325 -230 229
-523 415 -835 530 -60 22 -96 38 -80 35 17 -3 68 -20 115 -37z m-996 16 c3 -9
6 -31 6 -51 0 -53 -24 -36 -28 20 -3 46 10 63 22 31z m446 4 c0 -34 -14 -88
-21 -88 -10 0 -12 83 -2 93 10 11 23 8 23 -5z m-960 -7 c-8 -5 -26 -11 -40
-15 -21 -5 -20 -3 5 9 32 15 60 20 35 6z m1172 -66 c-4 -21 -14 -41 -21 -43
-13 -4 -11 23 6 82 10 35 24 1 15 -39z m-1242 41 c0 -2 -21 -11 -47 -21 -147
-55 -356 -174 -518 -296 -98 -74 -112 -86 -225 -193 l-75 -71 70 74 c57 60
157 145 285 244 95 73 246 157 450 250 34 15 60 21 60 13z m363 -3 c2 -5 7
-25 11 -45 6 -31 4 -38 -9 -38 -8 0 -15 6 -15 14 0 7 -3 28 -6 45 -6 28 7 44
19 24z m-203 -96 c12 -38 7 -59 -9 -41 -14 15 -31 76 -25 86 9 14 20 -1 34
-45z m1302 47 c9 -8 -22 -94 -33 -94 -11 0 -11 2 2 56 11 42 18 51 31 38z
m-1513 -114 c23 -45 26 -60 11 -60 -11 0 -49 81 -43 93 7 12 10 9 32 -33z
m1721 26 c0 -23 -30 -86 -40 -86 -14 0 -13 13 6 60 16 39 34 53 34 26z m-1886
-151 c32 -54 36 -68 26 -81 -19 -22 -26 -16 -69 56 -29 47 -36 68 -29 77 19
24 34 13 72 -52z m2093 54 c8 -8 0 -30 -29 -80 -35 -61 -42 -68 -59 -59 -10 6
-19 13 -19 17 0 3 16 35 35 70 36 62 51 73 72 52z m-2302 -155 c17 -23 24 -39
18 -45 -10 -10 -63 49 -63 70 0 21 18 11 45 -25z m2485 31 c0 -14 -47 -75 -57
-75 -18 0 -16 5 10 45 19 29 47 47 47 30z m-2110 -99 c0 -8 -9 -18 -21 -21
-11 -4 -18 -9 -16 -12 3 -2 14 0 24 5 25 13 43 4 43 -22 0 -24 -44 -56 -57
-41 -5 4 -3 9 2 12 24 9 39 23 32 30 -4 4 -17 1 -28 -6 -18 -10 -23 -10 -34 6
-12 16 -10 21 13 40 32 26 42 28 42 9z m857 -776 c-4 -649 -2 -770 9 -770 8 0
14 7 14 15 0 8 9 15 19 15 11 0 60 24 108 54 48 30 120 74 158 97 39 23 212
130 385 237 472 292 471 292 524 292 49 0 61 9 51 41 -15 47 -97 42 -109 -7
-5 -20 -13 -24 -46 -24 -45 0 -46 4 -25 58 39 98 200 110 255 20 11 -18 20
-41 20 -50 0 -10 3 -18 8 -18 4 0 52 27 107 60 55 33 106 60 113 60 18 0 14
-27 -5 -33 -10 -4 -36 -17 -58 -30 -22 -14 -67 -40 -100 -58 -50 -28 -69 -48
-113 -114 -42 -63 -65 -86 -105 -109 -106 -60 -377 -196 -389 -196 -27 0 -162
-73 -192 -104 -17 -17 -62 -46 -101 -64 -38 -18 -83 -40 -100 -49 -183 -98
-277 -143 -287 -137 -6 4 -8 3 -5 -3 4 -6 -3 -13 -15 -16 -15 -4 -26 0 -36 14
-16 23 -32 17 -25 -11 9 -34 -6 -68 -37 -87 l-30 -17 0 -123 c0 -106 -3 -126
-21 -158 -21 -34 -21 -36 -3 -56 12 -13 21 -16 28 -9 5 5 13 10 17 10 8 0 -8
-76 -20 -98 -7 -13 -10 -12 -19 4 -5 10 -15 45 -22 76 -12 51 -11 60 3 76 14
15 17 40 17 129 l0 111 -28 5 c-36 7 -79 48 -88 84 -10 40 -21 51 -88 85 -53
27 -174 101 -259 160 -26 18 -28 18 -25 2 4 -22 -42 -34 -85 -23 -66 18 -115
58 -170 141 -31 46 -83 107 -117 137 l-62 54 -80 -2 c-45 -1 -85 -4 -90 -7 -4
-3 -8 0 -8 5 0 6 5 11 11 11 6 0 9 8 7 18 -6 29 -33 21 -31 -10 1 -22 -4 -28
-28 -33 -16 -4 -31 -6 -34 -6 -2 0 -36 -16 -74 -34 -118 -57 -201 -153 -261
-300 -22 -52 -25 -75 -25 -170 1 -95 5 -119 28 -180 34 -85 74 -145 141 -207
49 -45 146 -105 183 -113 10 -2 40 -8 66 -14 70 -16 152 -15 230 3 246 58 421
289 404 535 -3 42 -8 90 -12 106 -5 24 -4 27 5 13 16 -25 40 -22 40 4 0 18 3
19 13 10 8 -9 12 -53 12 -145 0 -137 -4 -156 -58 -277 -75 -171 -292 -313
-487 -320 -109 -4 -118 -2 -112 25 3 20 0 25 -17 25 -12 0 -21 -6 -21 -15 0
-8 5 -15 10 -15 6 0 10 -4 10 -9 0 -4 -11 -6 -25 -3 -26 5 -32 16 -15 27 12 7
-5 35 -22 35 -16 0 -21 -32 -7 -42 28 -19 -56 4 -106 30 -78 38 -149 98 -216
180 -31 37 -89 167 -99 221 -21 113 -7 270 31 356 31 70 106 170 161 216 115
96 235 139 388 139 108 0 198 -21 278 -65 52 -29 73 -35 125 -35 38 0 77 -7
102 -19 49 -22 104 -82 112 -122 3 -18 17 -37 32 -46 50 -30 116 -76 126 -87
23 -26 120 -81 157 -89 13 -2 34 -1 48 2 l25 7 5 266 5 266 -76 -2 -77 -2 30
59 c17 32 36 61 44 64 7 2 16 12 19 22 2 9 15 21 27 26 23 10 23 13 23 195 l0
185 -25 0 c-22 0 -25 5 -28 42 -3 38 0 43 27 58 30 15 31 18 31 85 0 68 -1 70
-25 70 -20 0 -25 5 -25 24 0 13 11 40 25 60 14 20 25 46 25 56 0 11 7 20 16
20 14 0 15 -78 11 -770z m953 720 c0 -13 -6 -13 -33 1 l-22 12 20 -22 c14 -17
17 -26 9 -38 -6 -9 -15 -18 -20 -20 -13 -4 -60 34 -52 43 4 4 14 1 22 -6 9 -6
21 -10 28 -8 8 3 2 12 -15 23 -26 17 -27 19 -11 36 15 17 19 17 45 3 16 -8 29
-19 29 -24z m-1100 -170 l0 -200 -42 3 -43 3 -3 197 -2 197 45 0 45 0 0 -200z
m318 156 c27 -30 32 -43 32 -83 0 -64 -25 -103 -97 -150 l-58 -38 80 -5 80 -5
-1 -30 c-1 -16 -2 -32 -3 -35 -1 -7 -169 -3 -181 5 -5 3 -7 34 -5 69 4 59 7
65 50 108 66 67 61 128 -11 128 -33 0 -45 14 -39 46 2 11 4 23 4 28 1 5 27 6
59 3 49 -5 62 -11 90 -41z m1255 21 c-23 -37 -57 -67 -67 -57 -11 11 52 83 66
74 4 -3 5 -11 1 -17z m-2828 -23 c15 -19 24 -38 21 -41 -7 -7 -76 56 -76 69 0
20 30 5 55 -28z m465 27 c0 -5 -10 -16 -22 -25 l-23 -17 23 11 c25 12 52 -1
52 -25 0 -13 -42 -45 -60 -45 -20 0 -10 17 18 30 15 7 22 15 15 17 -7 2 -21
-1 -32 -6 -16 -9 -22 -8 -31 8 -14 27 -14 28 18 45 32 18 42 19 42 7z m-770
-125 c0 -2 -8 -10 -17 -17 -16 -13 -17 -12 -4 4 13 16 21 21 21 13z m3290 -29
c0 -14 -56 -67 -71 -67 -16 0 -10 13 23 47 34 35 48 41 48 20z m-3143 -23 c18
-14 33 -29 33 -35 0 -19 -27 -8 -60 26 -39 41 -22 47 27 9z m793 -184 l0 -190
-40 0 -40 0 0 190 0 190 40 0 40 0 0 -190z m170 0 l0 -190 -40 0 -40 0 0 190
0 190 40 0 40 0 0 -190z m1333 -2 l2 -186 -38 -4 c-21 -2 -40 -2 -43 1 -2 2
-4 89 -4 193 l0 189 41 -3 40 -3 2 -187z m-2433 13 c19 -16 32 -32 28 -36 -9
-9 -78 37 -78 53 0 19 13 15 50 -17z m3395 -6 c-25 -21 -43 -31 -49 -25 -5 5
-8 11 -5 13 50 39 64 47 78 47 10 -1 2 -13 -24 -35z m245 -120 c0 -5 -9 1 -20
15 -11 14 -20 30 -20 35 0 6 9 -1 20 -15 11 -14 20 -29 20 -35z m-95 -36 c7
-22 -3 -33 -64 -65 -20 -10 -39 -23 -42 -28 -11 -14 -39 1 -39 22 0 11 22 31
63 54 34 21 65 37 69 38 4 0 10 -9 13 -21z m-3629 -25 c35 -20 64 -39 64 -44
0 -4 -7 -13 -16 -21 -13 -10 -20 -10 -36 0 -11 6 -37 21 -59 33 -45 23 -53 33
-45 53 8 22 21 19 92 -21z m3754 6 c6 -11 8 -20 6 -20 -3 0 -10 9 -16 20 -6
11 -8 20 -6 20 3 0 10 -9 16 -20z m30 -65 c0 -5 -5 -3 -10 5 -5 8 -10 20 -10
25 0 6 5 3 10 -5 5 -8 10 -19 10 -25z m-3512 -29 c8 -18 7 -29 -4 -45 -21 -29
-61 -28 -76 3 -13 31 -5 54 24 65 30 11 43 5 56 -23z m3092 7 c0 -5 -18 -18
-40 -30 -46 -24 -57 -8 -12 19 29 18 52 22 52 11z m-2676 -47 c67 -28 101
-113 86 -218 -11 -79 -26 -94 -103 -102 -34 -3 -74 -9 -88 -12 -22 -5 -31 0
-54 31 -23 30 -29 48 -32 108 -4 61 -1 79 19 117 25 49 77 90 115 90 13 0 39
-6 57 -14z m-244 -181 l0 -175 -40 0 -39 0 -3 171 c-2 94 -1 173 1 175 2 2 22
4 43 4 l38 0 0 -175z m-270 159 c0 -3 -5 -15 -11 -27 -9 -20 -9 -20 4 -4 18
21 53 22 61 1 6 -16 -20 -64 -35 -64 -13 0 -11 7 7 35 10 15 12 25 5 25 -6 0
-16 -9 -23 -20 -14 -23 -29 -25 -46 -8 -8 8 -7 18 6 40 15 25 32 37 32 22z
m3230 -18 c0 -21 -28 -46 -51 -46 -11 0 -19 7 -19 16 0 10 5 14 15 10 9 -3 20
3 27 14 15 23 28 26 28 6z m438 -11 c-3 -3 -9 2 -12 12 -6 14 -5 15 5 6 7 -7
10 -15 7 -18z m-3938 -37 c0 -13 -29 -9 -63 8 -40 21 -40 21 -33 33 7 11 96
-27 96 -41z m3830 42 c0 -16 -81 -53 -92 -42 -7 7 3 17 28 31 43 22 64 26 64
11z m-2420 -95 c0 -19 5 -35 10 -35 6 0 18 16 27 35 19 39 39 48 29 13 -3 -13
-6 -35 -6 -50 0 -16 -5 -28 -10 -28 -6 0 -8 12 -5 28 l6 27 -18 -27 c-10 -16
-20 -28 -23 -28 -4 0 -11 12 -17 28 -10 24 -11 25 -12 5 -1 -23 -21 -43 -21
-21 0 27 21 88 30 88 6 0 10 -16 10 -35z m148 18 c9 -19 4 -46 -15 -78 -10
-16 -15 -18 -30 -9 -22 14 -27 42 -14 77 12 31 46 36 59 10z m59 -20 l10 -38
10 35 c8 33 12 35 54 38 38 3 42 1 28 -10 -9 -7 -20 -30 -23 -50 -4 -21 -11
-38 -15 -38 -5 0 -5 17 0 38 11 50 11 52 -5 52 -16 0 -26 -21 -26 -55 0 -12
-6 -28 -14 -35 -12 -9 -16 -5 -22 24 -7 39 -24 39 -24 0 0 -13 -5 -24 -11 -24
-7 0 -8 12 -4 33 16 80 28 88 42 30z m397 29 c3 -5 3 -26 -1 -46 -4 -28 -12
-40 -31 -47 -35 -14 -42 -1 -31 54 9 40 14 47 34 47 13 0 26 -4 29 -8z m42
-19 c-4 -16 -9 -36 -12 -45 -4 -12 0 -18 10 -18 9 0 16 -4 16 -10 0 -10 -33
-14 -42 -5 -8 9 14 105 24 105 6 0 7 -12 4 -27z m108 11 c3 -9 6 -32 6 -52 0
-33 -1 -34 -14 -17 -14 19 -15 19 -35 1 -26 -24 -26 -17 0 39 22 48 33 55 43
29z m71 -14 c9 -41 25 -48 25 -11 0 17 5 31 10 31 6 0 8 -10 6 -22 -14 -69
-17 -78 -26 -73 -4 3 -11 19 -15 35 -9 39 -25 39 -25 0 0 -16 -4 -30 -10 -30
-12 0 -12 1 1 56 13 51 25 56 34 14z m125 15 c15 -18 -1 -20 -18 -3 -16 16
-30 1 -38 -40 -6 -28 -4 -32 15 -32 11 0 21 5 21 12 0 6 3 8 7 4 5 -4 -1 -14
-11 -22 -24 -17 -46 -2 -46 33 0 54 41 83 70 48z m-630 -49 c0 -3 -4 -8 -10
-11 -5 -3 -10 -1 -10 4 0 6 5 11 10 11 6 0 10 -2 10 -4z m200 -72 c0 -8 -7
-14 -15 -14 -10 0 -15 10 -15 26 0 22 2 25 15 14 8 -7 15 -19 15 -26z m1978
-16 c-5 -15 -77 -40 -91 -31 -6 4 6 14 29 24 47 21 67 23 62 7z m-4025 -9 c34
-9 52 -29 26 -29 -23 0 -89 23 -89 32 0 11 17 10 63 -3z m3357 -64 c0 -35 -1
-35 -42 -35 -47 0 -88 9 -88 19 0 13 76 50 103 51 24 0 27 -3 27 -35z m-103
-52 c307 -140 435 -500 283 -798 -125 -246 -381 -366 -657 -309 -175 36 -318
148 -403 315 -37 72 -63 205 -57 297 3 47 10 89 17 95 10 9 11 4 6 -24 -5 -28
-3 -38 9 -43 19 -7 26 10 28 64 1 22 8 42 15 45 15 5 15 -4 -1 -80 -24 -110
-5 -240 50 -348 13 -27 55 -80 93 -117 98 -99 197 -145 332 -157 258 -21 495
151 554 403 61 261 -92 537 -344 619 -29 9 -51 19 -48 22 3 3 23 -2 44 -10 29
-12 42 -13 51 -4 15 15 14 27 -3 27 -8 0 -18 5 -21 10 -9 15 9 12 52 -7z
m-2249 -49 c17 -5 12 -76 -6 -82 -9 -3 -10 3 -4 20 11 30 4 58 -14 58 -25 0
-18 -94 11 -152 31 -61 31 -68 1 -68 -20 0 -25 -6 -31 -40 -8 -48 3 -140 16
-140 6 0 21 -11 34 -25 61 -60 5 -157 -81 -141 -64 13 -86 90 -39 140 13 14
31 26 40 26 13 0 15 13 13 88 -3 87 -3 87 -30 90 -16 2 -28 5 -28 6 0 1 11 25
25 52 30 59 32 84 6 84 -33 0 -43 64 -14 85 16 12 63 11 101 -1z m2072 -38 c0
-23 -17 -46 -34 -46 -6 0 -5 5 2 12 7 7 12 25 12 41 0 16 4 26 10 22 6 -3 10
-16 10 -29z m-3137 -7 c52 -14 49 -33 -5 -25 -48 8 -60 14 -53 27 8 11 11 11
58 -2z m3077 -23 c0 -19 14 -60 30 -91 17 -31 30 -59 30 -61 0 -2 -13 -4 -29
-4 -27 0 -29 -3 -37 -52 l-8 -53 -4 53 c-3 50 -4 52 -33 52 -29 0 -39 13 -18
26 11 6 49 88 49 105 0 5 -9 9 -19 9 -11 0 -23 5 -27 11 -4 7 0 9 14 5 14 -5
21 -1 25 14 8 32 27 23 27 -14z m1070 25 c0 -7 -73 -31 -94 -31 -17 0 -2 29
17 33 41 8 77 7 77 -2z m-3510 -191 c0 -5 -10 -10 -22 -10 -14 0 -18 -4 -12
-9 15 -15 49 -17 49 -3 0 7 7 17 15 22 33 20 67 -49 38 -78 -16 -16 -45 -15
-51 1 -4 9 -8 9 -15 -1 -11 -16 -43 -13 -49 5 -3 7 3 9 16 6 15 -4 21 -1 21
11 0 11 -7 16 -17 14 -13 -2 -19 5 -21 25 -3 23 0 27 22 27 14 0 26 -4 26 -10z
m2105 0 c3 -6 -4 -10 -17 -10 -22 -1 -22 -1 5 -16 27 -15 33 -30 19 -50 -8
-12 -122 -18 -122 -6 1 11 55 68 76 81 24 13 31 14 39 1z m750 0 c3 -6 -4 -10
-17 -11 l-23 0 23 -11 c33 -16 27 -63 -7 -63 -13 0 -26 6 -29 13 -2 7 4 11 15
10 10 -2 20 2 23 7 3 6 -5 11 -17 13 -22 3 -31 30 -16 45 10 10 41 8 48 -3z
m-3486 -35 c11 -12 -14 -20 -53 -17 -33 3 -46 8 -46 19 0 13 9 14 48 8 26 -4
49 -8 51 -10z m4171 6 c0 -12 -88 -26 -98 -17 -11 12 21 26 61 26 20 0 37 -4
37 -9z m650 -11 c0 -5 -5 -10 -11 -10 -5 0 -7 5 -4 10 3 6 8 10 11 10 2 0 4
-4 4 -10z m-3408 -30 l33 -20 -38 2 c-29 1 -37 5 -37 20 0 23 2 22 42 -2z
m1658 -71 c0 -17 5 -29 13 -29 22 0 56 -44 59 -75 5 -81 -93 -125 -147 -65
-34 37 -13 120 35 135 15 5 20 15 20 41 0 21 4 33 10 29 6 -3 10 -19 10 -36z
m-2816 -25 c18 -7 23 -74 6 -74 -5 0 -10 11 -10 25 0 33 -18 32 -22 -2 -2 -18
-10 -27 -25 -29 -21 -4 -23 0 -23 37 0 35 2 40 19 34 11 -3 22 -1 26 5 7 12 8
12 29 4z m4776 -24 c0 -5 -5 -10 -11 -10 -5 0 -7 5 -4 10 3 6 8 10 11 10 2 0
4 -4 4 -10z m-1135 -10 c4 -6 -13 -10 -44 -10 -28 0 -51 5 -51 10 0 6 20 10
44 10 25 0 48 -4 51 -10z m-3927 -16 c37 -26 20 -94 -24 -94 -50 0 -72 54 -37
92 20 22 32 23 61 2z m4194 4 c16 -13 22 -29 19 -55 0 -7 -12 -20 -26 -29 -23
-15 -27 -15 -50 0 -29 19 -33 56 -9 80 19 19 44 20 66 4z m779 2 c27 0 49 -4
49 -10 0 -6 -42 -10 -107 -10 -66 0 -103 4 -97 9 10 10 71 20 92 14 8 -1 36
-3 63 -3z m84 -10 c-3 -5 -10 -10 -16 -10 -5 0 -9 5 -9 10 0 6 7 10 16 10 8 0
12 -4 9 -10z m-1197 -42 c-2 -13 2 -24 7 -25 9 -3 11 1 14 35 1 8 10 12 24 10
17 -2 23 -11 25 -36 3 -28 0 -33 -15 -31 -10 1 -26 -1 -36 -6 -27 -11 -51 16
-43 49 8 32 28 35 24 4z m-3561 -41 c3 -47 -7 -52 -51 -26 -47 27 -48 56 -3
62 48 6 52 3 54 -36z m1853 -32 c-13 -14 -33 -25 -44 -25 -19 1 -18 3 9 25 41
34 66 33 35 0z m2902 -7 c-19 -19 -171 -23 -212 -5 -34 15 -31 15 95 16 99 1
126 -2 117 -11z m-115 -34 c-3 -3 -12 -4 -19 -1 -8 3 -5 6 6 6 11 1 17 -2 13
-5z m86 -1 c-13 -2 -35 -2 -50 0 -16 2 -5 4 22 4 28 0 40 -2 28 -4z m-2309
-49 c15 -14 17 -14 32 1 24 24 46 1 42 -44 -2 -28 -8 -37 -25 -39 -17 -3 -24
3 -29 23 -6 25 -7 25 -26 8 -18 -16 -18 -18 -1 -24 14 -6 12 -8 -9 -8 -33 -1
-35 9 -8 34 20 18 27 45 12 45 -4 0 -13 -5 -20 -12 -9 -9 -12 -8 -12 4 0 9 6
19 13 21 6 3 13 6 14 6 1 1 9 -6 17 -15z m822 -16 c9 -31 -4 -68 -25 -68 -11
0 -22 6 -24 13 -4 9 -8 8 -16 -3 -12 -18 -12 -18 -15 38 -2 36 0 41 15 37 10
-3 20 -1 23 4 10 15 34 2 42 -21z m-2879 -28 c4 -10 8 -5 12 15 5 24 11 30 31
30 21 0 25 -5 28 -36 4 -47 -20 -70 -47 -45 -12 11 -21 14 -25 7 -5 -7 -14 -7
-29 2 -12 6 -24 13 -26 14 -2 1 7 17 20 35 21 29 24 30 27 13 2 -11 6 -27 9
-35z m758 40 c4 -6 13 -5 25 3 29 18 54 -11 45 -51 -10 -48 -45 -50 -62 -4
l-9 23 -18 -20 c-19 -21 -19 -21 3 -21 12 0 20 -4 17 -9 -6 -10 -56 -2 -56 9
0 4 9 15 20 25 11 10 20 22 20 28 0 5 -9 7 -20 4 -20 -5 -26 3 -13 16 10 10
41 8 48 -3z m-1387 -42 c-5 -15 -98 -24 -98 -9 0 10 27 17 73 20 19 1 27 -3
25 -11z m4167 1 c4 -6 5 -12 3 -15 -8 -7 -98 8 -98 17 0 13 88 11 95 -2z
m-4375 -119 c44 -295 157 -604 311 -852 132 -214 289 -392 519 -590 30 -26 50
-47 43 -48 -12 0 -52 32 -177 144 -294 261 -560 705 -661 1106 -24 92 -55 276
-54 314 1 35 3 30 19 -74z m-250 29 c0 -5 -7 -9 -15 -9 -9 0 -12 6 -9 15 6 15
24 11 24 -6z m1461 -133 c0 -18 2 -17 11 7 12 33 45 36 57 5 17 -46 -15 -91
-43 -62 -16 15 -18 15 -29 0 -8 -11 -19 -15 -30 -10 -24 9 -21 27 3 19 14 -5
20 -2 20 9 0 9 -5 16 -12 16 -9 0 -9 3 0 12 18 18 14 30 -8 23 -21 -7 -29 10
-7 18 18 6 37 -12 38 -37z m2087 27 c-24 -6 -23 -19 2 -26 21 -5 28 -41 10
-52 -6 -4 -24 -4 -40 0 -27 6 -30 10 -30 46 0 39 0 39 38 38 20 -1 29 -3 20
-6z m-3058 -17 c0 -9 -15 -17 -40 -21 -51 -9 -54 -8 -58 4 -2 5 16 14 40 19
60 14 58 14 58 -2z m4104 -7 c17 -16 -1 -21 -45 -12 -60 12 -67 38 -8 28 24
-4 48 -11 53 -16z m-4267 -141 c-3 -8 -6 -5 -6 6 -1 11 2 17 5 13 3 -3 4 -12
1 -19z m1075 -41 c12 -17 2 -88 -13 -97 -9 -6 -6 -15 10 -35 25 -33 28 -95 5
-130 -46 -70 -209 -73 -273 -4 -28 31 -29 101 -1 129 22 22 25 37 10 42 -20 6
-24 76 -6 104 32 48 66 54 169 27 50 -13 95 -29 99 -36z m2418 -52 l0 -115 30
0 c28 0 30 -2 26 -32 -3 -27 -8 -34 -30 -36 -23 -3 -26 -8 -26 -43 l0 -39 -46
0 -46 0 4 38 3 37 -83 3 c-81 3 -82 3 -82 29 0 32 146 252 175 264 11 4 32 8
48 8 l27 1 0 -115z m-3483 53 c-3 -8 -6 -5 -6 6 -1 11 2 17 5 13 3 -3 4 -12 1
-19z m213 -18 c0 -11 -29 -24 -77 -36 -39 -10 -24 17 18 32 43 16 59 17 59 4z
m3951 -2 c38 -11 46 -18 33 -30 -8 -9 -94 22 -94 33 0 12 15 11 61 -3z m-4117
-108 c5 -17 4 -20 -2 -10 -5 8 -13 26 -16 40 -5 17 -4 20 2 10 5 -8 13 -26 16
-40z m75 -175 c157 -341 410 -650 711 -871 70 -51 262 -171 292 -183 13 -5 66
-29 118 -54 276 -131 596 -199 932 -198 360 1 663 73 978 230 377 189 730 511
933 851 15 25 27 40 27 34 0 -15 -133 -214 -193 -289 -80 -100 -263 -279 -370
-363 -401 -313 -886 -482 -1390 -482 -349 0 -676 76 -993 230 -426 209 -773
544 -993 963 -60 113 -103 211 -115 257 l-6 25 11 -25 c7 -14 32 -70 58 -125z
m3678 79 c10 -26 -14 -64 -40 -64 -48 0 -65 56 -25 84 23 17 54 7 65 -20z
m-3512 6 c5 -8 -72 -50 -91 -50 -26 0 49 58 78 60 4 0 10 -5 13 -10z m3808
-12 c23 -9 34 -27 17 -30 -17 -3 -80 29 -80 40 0 10 6 12 18 7 9 -4 30 -12 45
-17z m-3482 -9 c4 -8 7 -14 6 -14 -1 0 -16 -13 -34 -29 l-31 -28 -17 32 c-9
17 -14 38 -11 45 6 17 75 12 87 -6z m33 -65 c9 -8 16 -24 16 -34 0 -22 -25
-50 -45 -50 -20 0 -45 28 -45 50 0 22 25 50 45 50 7 0 21 -7 29 -16z m3077
-14 c4 -14 7 -19 8 -12 1 14 31 17 31 3 0 -5 -8 -19 -18 -31 -23 -28 -42 -19
-42 21 0 16 -5 29 -11 29 -7 0 -9 -10 -7 -25 3 -14 2 -25 -3 -25 -14 0 -21 21
-15 46 9 34 47 29 57 -6z m-3284 -59 c14 -23 13 -23 -71 -71 -47 -26 -60 -30
-67 -19 -5 8 -9 19 -9 24 0 9 117 85 130 85 3 0 11 -9 17 -19z m3522 -17 c73
-43 76 -47 53 -67 -15 -14 -23 -12 -79 22 -57 33 -74 56 -56 74 11 11 19 8 82
-29z m-2361 -37 c2 -10 -14 -46 -36 -80 -56 -88 -70 -122 -82 -202 -5 -38 -10
-73 -10 -76 0 -4 -20 -9 -45 -11 l-45 -3 0 41 c0 60 35 164 75 224 19 29 35
54 35 56 0 2 -43 4 -95 4 l-95 0 0 35 0 36 147 -3 c133 -3 148 -5 151 -21z
m1412 14 c0 -5 -3 -23 -6 -40 l-7 -32 -81 1 c-110 2 -106 3 -106 -21 0 -15 4
-19 16 -15 65 25 118 12 164 -40 71 -81 15 -219 -94 -231 -67 -8 -112 4 -151
41 -39 37 -49 86 -17 86 9 0 27 3 40 6 14 4 22 2 22 -7 0 -48 95 -69 124 -27
23 32 20 74 -6 98 -29 27 -64 25 -92 -5 -16 -18 -34 -25 -59 -25 l-35 0 5 98
c2 53 6 103 8 110 5 14 275 18 275 3z m1140 -9 c0 -5 -7 -17 -15 -28 -14 -18
-14 -17 -4 9 12 27 19 34 19 19z m-4 -70 c-13 -26 -34 -58 -46 -72 l-22 -25
20 30 c11 17 29 49 41 73 12 23 24 42 26 42 3 0 -6 -21 -19 -48z m-3646 -96
c0 -17 -77 -69 -85 -57 -5 9 62 70 78 71 4 0 7 -6 7 -14z m3400 -48 c0 -18
-30 -5 -89 38 -1 2 0 8 4 13 6 11 84 -36 85 -51z m-1688 42 c39 -11 95 -71 84
-88 -12 -20 -70 -20 -95 -1 -32 26 -57 24 -86 -6 -34 -33 -34 -58 1 -45 39 15
113 12 144 -7 37 -21 53 -52 53 -100 0 -49 -14 -75 -58 -108 -27 -21 -45 -26
-90 -26 -109 0 -169 69 -168 191 1 142 93 223 215 190z m1828 -72 c-99 -143
-244 -317 -255 -306 -4 4 21 38 56 76 35 38 102 121 149 184 90 121 123 152
50 46z m-3433 -126 c-22 -22 -39 -32 -48 -27 -9 6 -2 17 26 41 22 18 43 30 48
27 5 -3 -7 -21 -26 -41z m3122 14 c19 -20 28 -36 22 -40 -12 -8 -83 53 -75 65
9 15 19 10 53 -25z m-2494 -102 c18 -12 22 -20 15 -32 -5 -10 -11 -25 -14 -34
-3 -10 -13 -18 -22 -18 -21 0 -54 28 -54 47 0 19 9 16 30 -9 10 -13 22 -20 26
-16 4 4 1 14 -6 23 -10 12 -10 15 1 15 10 0 10 3 1 12 -12 12 -16 28 -7 28 3
0 17 -7 30 -16z m1885 6 c0 -5 -8 -14 -17 -19 -15 -8 -13 -10 12 -8 41 3 48
-34 10 -59 -32 -21 -48 -9 -17 15 26 19 19 36 -8 19 -14 -9 -22 -9 -34 1 -22
18 -20 24 12 43 31 20 42 22 42 8z m-2362 -77 c-48 -48 -60 -36 -18 17 23 30
36 38 44 30 7 -7 0 -21 -26 -47z m2811 21 c17 -19 29 -40 25 -45 -7 -13 -74
49 -74 68 0 22 17 15 49 -23z m-2254 4 c14 -6 25 -15 25 -20 0 -11 -7 -10 -33
3 -21 11 -21 11 2 -14 20 -22 22 -29 11 -42 -7 -8 -18 -15 -25 -15 -19 0 -61
37 -53 46 5 4 17 -1 28 -11 11 -10 23 -15 27 -11 4 4 -3 15 -15 25 -15 11 -21
23 -16 34 7 20 15 21 49 5z m1726 -4 c10 -12 10 -20 1 -35 -11 -18 -10 -19 13
-13 35 9 32 -12 -5 -31 -37 -19 -40 -19 -40 5 0 11 -7 20 -15 20 -20 0 -19 34
1 54 19 20 28 20 45 0z m-2087 -112 c6 -10 -43 -82 -56 -82 -14 0 -9 19 15 55
22 35 32 41 41 27z m2444 -27 c12 -19 22 -39 22 -45 0 -20 -15 -9 -40 28 -33
49 -34 52 -18 52 7 0 23 -16 36 -35z m-2218 -45 c0 -5 -16 -36 -36 -69 -23
-39 -43 -61 -55 -61 -33 0 -30 19 12 90 36 61 43 68 60 59 10 -5 19 -14 19
-19z m2031 -45 c36 -62 37 -85 3 -85 -16 0 -86 120 -80 137 12 31 42 11 77
-52z m-1883 -102 c-2 -5 -10 -25 -18 -45 -8 -21 -20 -38 -28 -38 -7 0 -12 3
-10 8 2 4 10 24 18 45 8 20 20 37 28 37 7 0 12 -3 10 -7z m1690 -26 c7 -18 12
-39 12 -45 0 -22 -18 -12 -28 16 -5 15 -13 35 -17 45 -5 11 -3 17 7 17 8 0 19
-15 26 -33z m-1498 -89 c-16 -39 -27 -54 -36 -45 -3 3 2 27 11 52 12 30 21 43
28 36 7 -7 5 -21 -3 -43z m1293 8 c14 -41 13 -56 -3 -56 -7 0 -30 68 -30 89 0
27 19 7 33 -33z m-1078 -48 c-11 -56 -16 -68 -27 -68 -10 0 -4 72 8 92 13 21
25 6 19 -24z m858 25 c11 -19 18 -93 9 -93 -11 0 -16 13 -27 68 -6 29 6 45 18
25z m-643 -57 c0 -41 -8 -66 -22 -66 -8 0 -7 65 1 98 1 1 6 2 11 2 6 0 10 -15
10 -34z m436 -11 c7 -48 3 -62 -15 -50 -13 8 -15 95 -2 95 6 0 13 -20 17 -45z
m-191 15 c36 -40 -3 -90 -61 -76 -52 13 -34 96 21 96 12 0 30 -9 40 -20z"/>
<path d="M6452 7472 c-8 -13 -16 -21 -19 -19 -10 11 -42 -33 -36 -49 3 -9 0
-20 -8 -24 -20 -13 -5 -22 37 -24 44 -1 54 16 19 32 -25 12 -37 49 -12 39 23
-9 39 9 35 39 l-3 29 -13 -23z"/>
<path d="M5410 7229 c0 -25 33 -22 38 4 2 12 -3 17 -17 17 -15 0 -21 -6 -21
-21z"/>
<path d="M5535 7240 c3 -5 13 -10 21 -10 8 0 12 5 9 10 -3 6 -13 10 -21 10 -8
0 -12 -4 -9 -10z"/>
<path d="M5303 7233 c-7 -2 -13 -11 -13 -18 0 -17 25 -26 38 -13 6 6 8 17 5
24 -5 15 -10 16 -30 7z"/>
<path d="M5470 7230 c0 -13 28 -25 38 -16 3 4 0 11 -8 16 -20 13 -30 12 -30 0z"/>
<path d="M5590 7224 c0 -8 9 -14 20 -14 11 0 20 4 20 9 0 5 -9 11 -20 14 -13
3 -20 0 -20 -9z"/>
<path d="M5243 7212 c-10 -7 -10 -12 0 -25 15 -20 43 -7 34 17 -7 18 -16 20
-34 8z"/>
<path d="M5647 7214 c-13 -13 -7 -24 14 -24 11 0 19 5 17 12 -5 14 -22 21 -31
12z"/>
<path d="M5194 7186 c-9 -23 7 -38 26 -26 13 8 13 11 -2 26 -16 17 -18 17 -24
0z"/>
<path d="M5706 7193 c-11 -11 -6 -23 9 -23 8 0 15 4 15 9 0 13 -16 22 -24 14z"/>
<path d="M5132 7143 c2 -10 10 -18 18 -18 8 0 16 8 18 18 2 12 -3 17 -18 17
-15 0 -20 -5 -18 -17z"/>
<path d="M5091 7121 c-12 -8 -13 -12 -1 -26 12 -14 15 -14 28 -1 8 8 11 19 8
25 -9 13 -16 14 -35 2z"/>
<path d="M5044 7079 c-3 -6 -1 -16 4 -21 13 -13 45 8 36 23 -7 12 -31 11 -40
-2z"/>
<path d="M7030 7062 c-107 -65 -121 -75 -117 -79 3 -2 47 21 98 52 51 30 87
55 79 54 -8 0 -35 -12 -60 -27z"/>
<path d="M5006 7033 c-7 -17 12 -36 26 -27 4 3 8 14 8 25 0 23 -25 25 -34 2z"/>
<path d="M4972 6983 c2 -10 10 -18 18 -18 8 0 16 8 18 18 2 12 -3 17 -18 17
-15 0 -20 -5 -18 -17z"/>
<path d="M4943 6934 c-7 -20 18 -38 29 -21 11 18 10 24 -7 31 -9 3 -18 -1 -22
-10z"/>
<path d="M4916 6883 c-6 -15 8 -32 25 -33 14 0 19 34 7 42 -19 11 -25 10 -32
-9z"/>
<path d="M4900 6820 c0 -15 5 -20 18 -18 9 2 17 10 17 18 0 8 -8 16 -17 18
-13 2 -18 -3 -18 -18z"/>
<path d="M4884 6763 c4 -22 26 -29 37 -12 14 22 11 29 -15 29 -17 0 -23 -5
-22 -17z"/>
<path d="M5996 6772 c-2 -4 -1 -14 4 -21 11 -19 41 -6 34 14 -6 16 -29 20 -38
7z"/>
<path d="M6417 6749 c-22 -13 -50 -67 -43 -85 9 -24 26 -15 26 15 0 15 9 40
21 55 23 29 22 30 -4 15z"/>
<path d="M6440 6720 c-20 -20 -27 -50 -12 -50 4 0 12 10 17 22 6 13 21 28 35
35 24 12 25 13 3 13 -13 0 -32 -9 -43 -20z"/>
<path d="M4880 6710 c0 -13 7 -20 20 -20 24 0 27 25 4 34 -23 9 -24 8 -24 -14z"/>
<path d="M6007 6724 c-14 -15 -6 -34 14 -34 14 0 19 5 17 17 -3 18 -20 27 -31
17z"/>
<path d="M6595 6710 c3 -5 8 -10 11 -10 2 0 4 5 4 10 0 6 -5 10 -11 10 -5 0
-7 -4 -4 -10z"/>
<path d="M6465 6689 c-11 -17 1 -21 15 -4 8 9 8 15 2 15 -6 0 -14 -5 -17 -11z"/>
<path d="M6495 6660 c-11 -17 5 -32 21 -19 8 6 14 15 14 20 0 12 -27 11 -35
-1z"/>
<path d="M4880 6645 c0 -8 9 -15 20 -15 11 0 20 7 20 15 0 8 -9 15 -20 15 -11
0 -20 -7 -20 -15z"/>
<path d="M6000 6646 c0 -15 24 -28 34 -19 13 14 5 33 -14 33 -11 0 -20 -6 -20
-14z"/>
<path d="M6430 6626 c0 -2 7 -12 16 -20 17 -18 39 -22 29 -6 -7 11 -45 33 -45
26z"/>
<path d="M4887 6604 c-9 -10 4 -34 19 -34 8 0 14 9 14 20 0 19 -19 27 -33 14z"/>
<path d="M5997 6596 c-7 -16 1 -26 20 -26 7 0 13 9 13 20 0 23 -25 27 -33 6z"/>
<path d="M4900 6530 c0 -15 5 -20 18 -18 9 2 17 10 17 18 0 8 -8 16 -17 18
-13 2 -18 -3 -18 -18z"/>
<path d="M5985 6540 c-8 -14 3 -30 21 -30 8 0 14 9 14 20 0 21 -24 28 -35 10z"/>
<path d="M4922 6492 c-12 -8 -7 -42 7 -42 17 1 31 18 25 33 -7 19 -13 20 -32
9z"/>
<path d="M5966 6484 c-6 -16 8 -33 27 -34 12 0 4 43 -9 47 -6 2 -14 -4 -18
-13z"/>
<path d="M5943 6434 c-7 -19 11 -39 26 -30 16 10 13 33 -4 40 -9 3 -18 -1 -22
-10z"/>
<path d="M4940 6426 c0 -8 4 -17 8 -20 13 -8 35 11 28 23 -10 16 -36 14 -36
-3z"/>
<path d="M4974 6379 c-10 -17 13 -36 27 -22 12 12 4 33 -11 33 -5 0 -12 -5
-16 -11z"/>
<path d="M5914 6379 c-10 -17 13 -36 27 -22 12 12 4 33 -11 33 -5 0 -12 -5
-16 -11z"/>
<path d="M5006 6341 c-9 -14 4 -41 19 -41 21 0 28 19 15 35 -14 17 -26 19 -34
6z"/>
<path d="M5880 6335 c-13 -16 -6 -35 15 -35 15 0 28 27 19 41 -8 13 -20 11
-34 -6z"/>
<path d="M5045 6290 c-4 -7 -3 -16 3 -22 14 -14 45 -2 40 15 -6 16 -34 21 -43
7z"/>
<path d="M5836 6285 c-3 -9 1 -18 10 -22 19 -7 39 11 30 26 -10 16 -33 13 -40
-4z"/>
<path d="M5085 6249 c-8 -12 14 -31 30 -26 6 2 10 10 10 18 0 17 -31 24 -40 8z"/>
<path d="M5795 6250 c-4 -7 -3 -16 2 -21 12 -12 45 0 40 15 -5 15 -34 19 -42
6z"/>
<path d="M5135 6221 c-8 -15 3 -31 21 -31 9 0 14 7 12 17 -4 20 -24 28 -33 14z"/>
<path d="M5757 6224 c-14 -14 -7 -35 11 -32 9 2 17 10 17 17 0 16 -18 25 -28
15z"/>
<path d="M5194 6185 c-9 -22 5 -38 22 -24 18 15 18 25 -1 33 -9 3 -18 -1 -21
-9z"/>
<path d="M5695 6191 c-8 -15 3 -31 21 -31 9 0 14 7 12 17 -4 20 -24 28 -33 14z"/>
<path d="M5240 6161 c-7 -15 -6 -20 6 -25 19 -7 34 1 34 19 0 22 -29 26 -40 6z"/>
<path d="M5653 6173 c-15 -5 -17 -29 -4 -37 4 -3 16 0 25 7 15 11 15 15 4 24
-7 6 -19 8 -25 6z"/>
<path d="M5591 6151 c-21 -13 -6 -41 18 -34 24 6 23 5 15 27 -7 18 -13 19 -33
7z"/>
<path d="M5537 6137 c-21 -15 -7 -40 16 -31 18 7 23 29 8 38 -4 3 -15 0 -24
-7z"/>
<path d="M5410 6121 c0 -15 6 -21 21 -21 14 0 19 5 17 17 -5 26 -38 29 -38 4z"/>
<path d="M5477 6134 c-14 -15 -6 -34 14 -34 14 0 19 5 17 17 -3 18 -20 27 -31
17z"/>
<path d="M4924 7629 c-10 -17 23 -46 37 -32 7 7 9 19 6 27 -7 18 -33 21 -43 5z"/>
<path d="M5334 7540 c-30 -12 -47 -70 -42 -141 6 -89 52 -125 98 -79 16 16 20
33 20 96 0 102 -25 143 -76 124z"/>
<path d="M6130 7454 c-15 -38 -12 -54 9 -54 13 0 21 9 26 30 11 51 -18 71 -35
24z"/>
<path d="M6596 7473 c-11 -11 -6 -23 9 -23 8 0 15 4 15 9 0 13 -16 22 -24 14z"/>
<path d="M6587 7423 c-12 -11 -8 -23 8 -23 8 0 15 7 15 15 0 16 -12 20 -23 8z"/>
<path d="M6756 7445 c-3 -8 -1 -15 4 -15 13 0 22 18 11 24 -5 3 -11 -1 -15 -9z"/>
<path d="M7750 7178 c0 -17 68 -61 80 -53 18 11 11 25 -22 45 -38 23 -58 25
-58 8z"/>
<path d="M7844 7119 c-6 -10 51 -68 68 -69 21 -1 17 25 -8 51 -29 30 -48 36
-60 18z"/>
<path d="M7932 7042 c-9 -6 -5 -17 15 -45 16 -20 32 -36 36 -37 19 -1 17 31
-4 59 -25 33 -27 35 -47 23z"/>
<path d="M7996 6942 c-8 -13 27 -82 41 -82 17 0 16 24 -2 60 -15 30 -29 37
-39 22z"/>
<path d="M8035 6823 c4 -10 9 -33 12 -50 3 -18 12 -33 19 -33 21 0 24 13 12
58 -8 32 -15 42 -30 42 -15 0 -18 -4 -13 -17z"/>
<path d="M6939 6728 c-1 -1 -2 -24 -3 -50 -1 -41 1 -48 17 -48 15 0 18 7 15
47 -2 26 -9 48 -15 51 -7 2 -13 2 -14 0z"/>
<path d="M8057 6723 c-3 -5 -5 -27 -5 -50 -1 -36 2 -43 19 -43 16 0 19 7 19
50 0 37 -4 50 -14 50 -8 0 -17 -3 -19 -7z"/>
<path d="M6944 6568 c8 -50 13 -58 33 -58 13 0 14 8 9 42 -8 50 -13 58 -33 58
-13 0 -14 -8 -9 -42z"/>
<path d="M8042 6568 c-12 -45 -9 -58 12 -58 14 0 39 77 30 92 -13 20 -32 4
-42 -34z"/>
<path d="M6974 6489 c-3 -6 2 -28 11 -49 15 -33 21 -38 35 -30 17 9 17 12 -1
50 -20 41 -32 49 -45 29z"/>
<path d="M8007 6458 c-13 -33 -14 -43 -5 -50 7 -4 15 -8 18 -8 9 0 40 82 34
91 -12 20 -30 7 -47 -33z"/>
<path d="M7025 6380 c-7 -11 42 -80 57 -80 20 0 18 30 -3 59 -23 31 -43 39
-54 21z"/>
<path d="M7948 6356 c-24 -30 -25 -36 -12 -46 8 -7 16 -11 17 -9 2 2 13 17 25
33 44 58 15 79 -30 22z"/>
<path d="M7101 6296 c-8 -9 -2 -21 24 -46 31 -31 37 -32 50 -19 14 14 11 19
-24 47 -31 25 -41 29 -50 18z"/>
<path d="M7874 6276 c-31 -27 -36 -37 -27 -47 9 -9 20 -6 48 15 34 26 44 49
26 60 -5 3 -26 -10 -47 -28z"/>
<path d="M7187 6216 c-5 -13 58 -56 82 -56 24 0 9 29 -25 49 -41 25 -50 26
-57 7z"/>
<path d="M7795 6219 c-4 -5 -18 -14 -31 -19 -23 -9 -25 -40 -2 -40 20 0 78 42
78 56 0 16 -36 19 -45 3z"/>
<path d="M7297 6173 c-22 -21 26 -53 81 -53 21 0 13 30 -10 39 -47 17 -65 21
-71 14z"/>
<path d="M7673 6167 c-21 -7 -33 -18 -33 -29 0 -22 19 -23 65 -4 25 11 33 19
29 30 -7 18 -14 18 -61 3z"/>
<path d="M7404 6136 c-9 -23 -5 -25 49 -32 43 -6 47 -5 47 15 0 15 -6 21 -22
21 -13 0 -33 3 -45 6 -16 4 -25 1 -29 -10z"/>
<path d="M7570 6142 c-56 -6 -65 -42 -10 -42 38 0 60 9 60 25 0 18 -9 21 -50
17z"/>
<path d="M5410 7150 c0 -5 7 -10 15 -10 8 0 15 5 15 10 0 6 -7 10 -15 10 -8 0
-15 -4 -15 -10z"/>
<path d="M5412 7116 c1 -10 8 -17 13 -17 15 1 12 24 -3 29 -9 3 -13 -2 -10
-12z"/>
<path d="M5435 6699 c-4 -6 -5 -12 -2 -15 2 -3 7 2 10 11 7 17 1 20 -8 4z"/>
<path d="M5450 6670 c0 -5 5 -10 10 -10 6 0 10 5 10 10 0 6 -4 10 -10 10 -5 0
-10 -4 -10 -10z"/>
<path d="M5112 6888 c2 -18 8 -33 13 -33 6 0 11 15 13 33 3 24 -1 32 -13 32
-12 0 -16 -8 -13 -32z"/>
<path d="M7110 6875 c-16 -19 -7 -30 17 -20 10 5 26 7 37 6 11 -2 17 2 14 11
-7 19 -53 22 -68 3z"/>
<path d="M7510 6669 c0 -5 5 -7 10 -4 6 3 10 8 10 11 0 2 -4 4 -10 4 -5 0 -10
-5 -10 -11z"/>
<path d="M4660 6631 c0 -5 7 -11 15 -15 9 -3 15 0 15 9 0 8 -7 15 -15 15 -8 0
-15 -4 -15 -9z"/>
<path d="M7172 6469 c2 -19 8 -33 13 -31 15 3 12 55 -3 60 -10 3 -13 -5 -10
-29z"/>
<path d="M7914 6487 c-7 -20 -2 -47 11 -50 14 -3 19 43 6 56 -7 7 -12 6 -17
-6z"/>
<path d="M5105 6469 c-9 -26 12 -51 24 -30 10 15 3 51 -9 51 -5 0 -12 -9 -15
-21z"/>
<path d="M5040 6460 c0 -5 5 -10 10 -10 6 0 10 5 10 10 0 6 -4 10 -10 10 -5 0
-10 -4 -10 -10z"/>
<path d="M5862 6485 c-12 -22 -4 -57 12 -52 15 5 20 47 8 59 -7 7 -13 4 -20
-7z"/>
<path d="M5487 6253 c-4 -3 -7 -19 -7 -35 0 -35 23 -34 28 1 4 25 -10 46 -21
34z"/>
<path d="M7490 6216 c0 -14 34 -28 44 -18 15 14 4 32 -19 32 -15 0 -25 -6 -25
-14z"/>
<path d="M5221 6047 c-31 -16 -36 -31 -16 -51 21 -20 79 -21 99 0 21 21 20 30
-6 48 -27 19 -45 20 -77 3z"/>
<path d="M5198 5886 c-41 -31 -9 -75 55 -76 21 0 47 5 58 10 21 12 25 50 7 68
-16 16 -99 15 -120 -2z"/>
<path d="M7709 5988 c-7 -13 -15 -25 -18 -28 -9 -8 -51 -69 -51 -75 0 -3 20
-5 45 -5 l45 0 0 65 c0 36 -2 65 -5 65 -2 0 -10 -10 -16 -22z"/>
<path d="M8064 5825 c-4 -9 -2 -21 4 -27 15 -15 44 -1 40 19 -4 23 -36 29 -44
8z"/>
<path d="M4880 5800 c0 -13 11 -13 30 0 12 8 11 10 -7 10 -13 0 -23 -4 -23
-10z"/>
<path d="M4931 5736 c-14 -17 -7 -36 14 -36 22 0 29 20 13 36 -13 13 -16 13
-27 0z"/>
<path d="M6454 5262 c-37 -24 -36 -91 1 -106 22 -8 67 -7 81 2 19 12 26 50 13
74 -15 30 -28 38 -59 38 -14 0 -30 -4 -36 -8z"/>
<path d="M7335 5099 c-4 -6 -5 -13 -2 -16 7 -7 27 6 27 18 0 12 -17 12 -25 -2z"/>
<path d="M5305 8640 c-3 -6 1 -7 9 -4 18 7 21 14 7 14 -6 0 -13 -4 -16 -10z"/>
<path d="M5234 8594 c-18 -14 -18 -14 6 -3 31 14 36 19 24 19 -6 0 -19 -7 -30
-16z"/>
<path d="M8873 8320 c-55 -32 -78 -31 -86 1 -5 19 -7 19 -44 4 -21 -9 -45 -23
-53 -32 -14 -14 -12 -15 15 -9 27 6 28 5 13 -7 -16 -12 -26 -47 -14 -47 2 0
23 11 47 25 39 22 46 23 65 10 20 -13 27 -11 76 15 29 16 60 30 69 30 9 0 42
-27 72 -60 49 -52 83 -110 127 -215 7 -16 15 -25 17 -19 6 18 -41 126 -81 187
-44 66 -128 147 -153 147 -10 0 -41 -14 -70 -30z"/>
<path d="M8150 8246 c0 -2 8 -10 18 -17 15 -13 16 -12 3 4 -13 16 -21 21 -21
13z"/>
<path d="M8240 8140 c6 -11 13 -20 16 -20 2 0 0 9 -6 20 -6 11 -13 20 -16 20
-2 0 0 -9 6 -20z"/>
<path d="M9017 8131 c-54 -32 -73 -48 -65 -56 7 -7 128 66 128 77 0 13 -13 9
-63 -21z"/>
<path d="M8289 8083 c12 -18 24 -33 27 -33 9 0 -15 37 -33 51 -12 10 -11 5 6
-18z"/>
<path d="M8842 8030 c-29 -17 -50 -35 -47 -41 4 -5 29 3 61 22 31 18 62 28 71
25 13 -5 14 -4 3 9 -17 21 -27 19 -88 -15z"/>
<path d="M8340 8013 c13 -18 25 -33 27 -33 8 0 -17 38 -33 51 -11 9 -9 2 6
-18z"/>
<path d="M8959 8002 c5 -10 18 -25 27 -33 11 -9 9 -2 -6 19 -26 35 -36 42 -21
14z"/>
<path d="M9137 7991 c-2 -11 -23 -29 -45 -40 -41 -21 -58 -38 -49 -48 11 -10
117 62 117 79 0 25 -17 31 -23 9z"/>
<path d="M9113 7920 c-29 -17 -53 -35 -53 -41 0 -10 83 33 110 58 24 22 -2 14
-57 -17z"/>
<path d="M9035 7812 c-92 -53 -125 -75 -125 -83 0 -5 2 -9 5 -9 12 0 155 93
155 101 0 11 1 11 -35 -9z"/>
<path d="M9220 7143 c-18 -15 -41 -47 -51 -71 -27 -63 -23 -65 11 -6 49 86 69
96 177 92 50 -1 89 0 86 5 -2 4 -46 7 -98 7 -87 0 -96 -2 -125 -27z"/>
<path d="M9490 7093 c1 -5 9 -24 20 -43 23 -41 27 -23 5 20 -15 29 -25 38 -25
23z"/>
<path d="M9538 6960 c2 -17 9 -33 15 -37 6 -4 7 4 3 23 -10 41 -24 51 -18 14z"/>
<path d="M9566 6925 c-10 -26 -7 -35 9 -35 8 0 15 7 15 15 0 8 0 18 1 22 1 15
-19 13 -25 -2z"/>
<path d="M9450 6895 c0 -5 10 -19 21 -31 l21 -23 -34 11 c-25 7 -44 7 -64 0
-28 -10 -28 -10 16 -12 25 -1 49 -2 53 -1 4 1 21 -6 38 -15 49 -25 48 -12 -3
35 -27 24 -48 40 -48 36z"/>
<path d="M9620 6841 c0 -6 5 -13 10 -16 6 -3 10 1 10 9 0 9 -4 16 -10 16 -5 0
-10 -4 -10 -9z"/>
<path d="M9630 6720 c0 -18 4 -29 10 -25 6 3 10 15 10 25 0 10 -4 22 -10 25
-6 4 -10 -7 -10 -25z"/>
<path d="M9601 6714 c0 -11 3 -14 6 -6 3 7 2 16 -1 19 -3 4 -6 -2 -5 -13z"/>
<path d="M9590 6679 c0 -5 5 -7 10 -4 6 3 10 8 10 11 0 2 -4 4 -10 4 -5 0 -10
-5 -10 -11z"/>
<path d="M9630 6579 c0 -11 5 -17 10 -14 6 3 10 13 10 21 0 8 -4 14 -10 14 -5
0 -10 -9 -10 -21z"/>
<path d="M9550 6430 c0 -23 5 -30 19 -30 25 0 32 11 24 38 -3 13 -13 22 -24
22 -14 0 -19 -7 -19 -30z"/>
<path d="M9541 6390 c0 -3 -10 -29 -21 -57 -11 -29 -18 -53 -15 -53 11 0 46
83 42 98 -3 9 -5 15 -6 12z"/>
<path d="M3912 6140 c0 -14 2 -19 5 -12 2 6 2 18 0 25 -3 6 -5 1 -5 -13z"/>
<path d="M8900 5612 c0 -5 15 -16 33 -25 17 -9 56 -31 86 -48 79 -47 57 -14
-24 37 -69 42 -95 52 -95 36z"/>
<path d="M9050 5455 c0 -5 70 -43 104 -58 16 -6 17 -5 6 9 -23 26 -110 66
-110 49z"/>
<path d="M9036 5433 c-13 -14 -4 -24 44 -48 37 -19 50 -31 50 -47 0 -16 3 -19
11 -11 6 6 9 19 7 28 -3 19 -102 87 -112 78z"/>
<path d="M8990 5389 c-7 -11 -10 -23 -7 -25 2 -2 9 7 15 21 14 30 7 33 -8 4z"/>
<path d="M8775 5351 c-3 -5 23 -25 57 -45 66 -37 77 -36 113 5 l20 23 -29 -22
c-27 -20 -30 -21 -60 -5 -17 8 -43 24 -58 34 -30 22 -35 23 -43 10z"/>
<path d="M8742 5300 c-12 -16 -22 -32 -22 -35 0 -11 -91 -137 -168 -235 -71
-89 -191 -220 -256 -279 -16 -14 -38 -35 -50 -47 -12 -11 -54 -46 -94 -78 -40
-32 -76 -64 -79 -70 -10 -15 65 44 152 119 39 33 79 67 89 75 18 13 19 13 10
-1 -24 -42 -281 -250 -393 -319 -29 -18 -50 -34 -48 -37 9 -9 195 118 296 202
66 54 212 188 219 200 4 8 34 42 67 77 77 80 213 255 165 211 -24 -22 -32 -14
-13 11 12 16 21 20 26 12 6 -7 7 -6 4 4 -2 8 8 33 23 55 50 72 101 157 97 161
-2 2 -13 -10 -25 -26z m-142 -242 c0 -7 -15 -29 -33 -49 -17 -20 -45 -53 -62
-72 -64 -75 -167 -178 -173 -172 -4 4 18 30 48 58 56 52 182 194 203 229 14
21 17 22 17 6z"/>
<path d="M9163 5318 c-5 -7 -17 -34 -26 -59 -33 -89 -141 -229 -176 -229 -9 0
-42 14 -74 31 -55 29 -60 29 -77 14 -17 -15 -21 -15 -60 10 -31 20 -45 24 -53
16 -9 -9 -4 -18 18 -36 17 -13 26 -24 21 -25 -5 0 -18 7 -28 17 -10 9 -21 13
-25 10 -8 -8 22 -34 56 -48 19 -8 28 -6 43 11 l19 20 57 -30 c82 -43 96 -40
168 33 59 60 104 137 139 236 15 43 14 50 -2 29z"/>
<path d="M4210 5297 c0 -11 33 -67 37 -64 5 6 -25 67 -32 67 -3 0 -5 -2 -5 -3z"/>
<path d="M8940 5253 c0 -4 8 -13 18 -19 75 -46 111 -64 116 -56 3 5 -18 22
-47 40 -62 37 -87 47 -87 35z"/>
<path d="M4260 5215 c0 -5 9 -21 20 -35 11 -14 20 -20 20 -15 0 6 -9 21 -20
35 -11 14 -20 21 -20 15z"/>
<path d="M4310 5129 c0 -9 3 -19 8 -23 4 -4 7 -11 7 -15 0 -25 270 -318 380
-411 128 -109 382 -290 407 -290 7 0 -17 19 -52 43 -184 121 -246 170 -400
312 -122 113 -319 330 -320 352 0 4 -7 17 -15 27 -12 15 -15 16 -15 5z"/>
<path d="M7999 4963 c-13 -17 -13 -17 6 -3 11 8 22 16 24 17 2 2 0 3 -6 3 -6
0 -17 -8 -24 -17z"/>
<path d="M4360 4896 c0 -3 91 -199 145 -311 19 -38 49 -88 68 -110 19 -22 46
-62 60 -90 32 -61 33 -49 6 52 -28 103 -63 173 -136 269 -33 44 -77 105 -98
137 -34 51 -45 64 -45 53z"/>
<path d="M8504 4747 c-56 -84 -104 -157 -108 -164 -10 -18 -65 -237 -61 -241
2 -3 17 20 32 50 15 30 45 79 65 109 20 30 60 112 88 183 28 71 60 147 71 168
40 78 12 44 -87 -105z"/>
<path d="M7986 4499 c-109 -77 -104 -81 9 -6 72 48 69 46 64 51 -2 2 -35 -18
-73 -45z"/>
<path d="M7868 4422 c-16 -10 -28 -21 -28 -25 0 -5 14 1 30 13 17 12 30 23 30
26 0 5 0 5 -32 -14z"/>
<path d="M4624 4140 c12 -59 69 -258 84 -293 9 -22 31 -50 49 -64 21 -17 33
-34 33 -50 0 -14 4 -22 11 -18 5 4 18 0 27 -7 33 -28 183 -115 215 -123 4 -2
9 -4 12 -5 3 -1 11 -3 18 -4 6 -1 11 -7 9 -14 -5 -25 16 -11 23 15 6 26 7 27
18 8 7 -14 11 -259 13 -815 1 -770 6 -887 33 -939 17 -31 83 -45 171 -36 229
23 218 23 350 -23 197 -69 275 -76 855 -77 556 0 562 0 765 67 78 25 148 41
185 43 33 1 72 6 88 10 18 5 33 3 43 -6 19 -16 202 -25 222 -11 29 20 34 100
31 527 -1 237 -1 607 -1 823 l2 392 23 10 c12 6 29 14 37 20 8 6 35 19 60 30
25 11 72 36 105 55 33 19 75 42 93 51 17 9 32 23 32 32 0 8 18 34 40 58 21 23
42 53 44 66 3 13 19 81 36 151 16 71 30 134 30 140 0 7 -13 -10 -28 -38 -15
-27 -45 -76 -65 -108 -21 -32 -41 -73 -44 -90 -9 -46 -26 -82 -41 -84 -6 -2
-12 5 -12 15 -1 16 -1 16 -14 0 -7 -10 -18 -18 -25 -18 -6 0 -14 -7 -17 -15
-4 -8 -12 -15 -20 -15 -17 0 -99 -44 -120 -64 -8 -9 -24 -16 -35 -16 -12 0
-19 -7 -19 -19 0 -10 -6 -21 -14 -24 -8 -3 -17 -24 -21 -46 -4 -23 -10 -41
-13 -41 -4 0 -8 87 -10 192 -2 106 -6 197 -9 202 -4 6 -459 7 -1202 3 -658 -4
-1275 -7 -1372 -7 l-177 0 -6 -42 c-3 -24 -6 -92 -7 -153 -1 -60 -3 -113 -5
-117 -5 -8 -64 50 -64 63 0 5 -11 9 -24 9 -13 0 -26 7 -30 15 -3 8 -15 15 -26
15 -22 0 -27 15 -7 23 6 3 -2 3 -19 0 -19 -3 -36 0 -45 9 -8 7 -33 22 -56 33
-37 17 -45 27 -57 67 -7 26 -31 73 -52 104 -22 31 -54 79 -72 107 -23 36 -32
44 -28 27z m3296 -565 c0 -8 -7 -15 -16 -15 -14 0 -14 3 -4 15 7 8 14 15 16
15 2 0 4 -7 4 -15z"/>
</g>
</svg>
