<?xml version="1.0" standalone="no"?>
<!DOCTYPE svg PUBLIC "-//W3C//DTD SVG 20010904//EN"
 "http://www.w3.org/TR/2001/REC-SVG-20010904/DTD/svg10.dtd">
<svg version="1.0" xmlns="http://www.w3.org/2000/svg"
 width="1000.000000pt" height="1000.000000pt" viewBox="0 0 1000.000000 1000.000000"
 preserveAspectRatio="xMidYMid meet">

<g transform="translate(0.000000,1000.000000) scale(0.100000,-0.100000)"
fill="#000000" stroke="none">
<path d="M5510 9213 c8 -3 20 -12 27 -20 10 -13 12 -12 10 6 -1 16 -8 21 -27
20 -15 0 -19 -3 -10 -6z"/>
<path d="M4317 9178 c-4 -16 -9 -39 -12 -53 -4 -17 -10 -23 -17 -19 -18 11
-138 13 -144 2 -3 -5 -26 -6 -50 -2 -32 4 -44 3 -44 -6 0 -10 -3 -10 -15 0
-13 11 -15 8 -15 -21 1 -26 3 -30 10 -18 6 11 21 15 47 14 21 -2 70 1 108 6
42 6 83 6 102 0 30 -9 34 -7 39 13 3 12 4 42 2 67 -3 39 -4 41 -11 17z"/>
<path d="M5543 9125 l2 -40 78 -2 c43 -1 101 -7 128 -13 35 -9 54 -9 61 -2 6
6 17 8 26 5 10 -4 13 -1 10 8 -4 11 -33 14 -147 14 l-142 0 -5 25 c-10 44 -13
46 -11 5z"/>
<path d="M4328 8888 c-28 -10 -28 -10 -28 -107 0 -54 -2 -100 -4 -102 -3 -2
-31 -2 -63 1 -142 12 -307 -9 -279 -37 4 -4 11 -1 16 7 8 13 10 12 10 -2 0
-15 10 -18 53 -19 l52 -2 -67 -15 c-59 -14 -68 -20 -68 -38 0 -32 21 -33 140
-6 58 12 130 22 160 20 l55 -2 10 119 10 120 30 6 c17 4 285 7 596 8 486 1
568 -1 579 -14 7 -8 11 -36 9 -67 -2 -29 -2 -77 -1 -105 l2 -53 34 0 c19 0 78
-9 133 -21 54 -11 119 -23 146 -26 l47 -6 0 56 c0 66 9 63 -187 73 -108 5
-143 4 -143 -5 0 -7 -5 -9 -11 -6 -6 4 -9 44 -7 108 l3 102 -35 12 c-45 15
-1150 17 -1192 1z m-248 -234 c0 -2 -18 -4 -40 -4 -22 0 -40 3 -40 8 0 4 18 6
40 4 22 -2 40 -6 40 -8z m32 1 c0 -5 -5 -11 -11 -13 -6 -2 -11 4 -11 13 0 9 5
15 11 13 6 -2 11 -8 11 -13z m38 5 c0 -5 -4 -10 -10 -10 -5 0 -10 5 -10 10 0
6 5 10 10 10 6 0 10 -4 10 -10z m40 -6 c0 -2 -7 -4 -15 -4 -8 0 -15 4 -15 10
0 5 7 7 15 4 8 -4 15 -8 15 -10z m35 6 c3 -5 1 -10 -4 -10 -6 0 -11 5 -11 10
0 6 2 10 4 10 3 0 8 -4 11 -10z m52 -6 c-3 -3 -12 -4 -19 -1 -8 3 -5 6 6 6 11
1 17 -2 13 -5z m1531 -31 c-21 -2 -57 -2 -80 0 -24 2 -7 4 37 4 44 0 63 -2 43
-4z"/>
<path d="M4281 8174 c0 -67 -4 -136 -7 -153 l-6 -31 -127 -1 c-69 -1 -155 -5
-191 -9 -53 -6 -37 -8 95 -10 l160 -3 -130 -8 c-71 -3 -145 -7 -162 -8 -26 -1
-33 -5 -33 -21 0 -11 5 -20 10 -20 6 0 9 -6 8 -12 -4 -17 17 -15 139 10 56 12
133 22 172 22 57 0 72 3 79 18 5 9 12 64 14 121 4 86 8 106 23 118 15 10 130
13 606 13 550 0 587 -1 594 -17 4 -10 9 -61 11 -113 8 -148 3 -140 82 -140 37
0 121 -11 187 -25 118 -25 155 -25 155 -2 -1 34 -18 38 -176 46 l-159 8 149 1
c82 1 146 5 143 8 -12 13 -341 13 -349 1 -8 -12 -13 125 -8 226 4 106 61 97
-647 97 -377 0 -612 -4 -608 -9 3 -5 1 -12 -4 -15 -5 -4 -12 2 -14 11 -3 10
-5 -37 -6 -103z"/>
<path d="M4298 7533 c7 -3 16 -2 19 1 4 3 -2 6 -13 5 -11 0 -14 -3 -6 -6z"/>
<path d="M4336 7522 c-21 -2 -44 -9 -50 -15 -14 -15 -19 -170 -6 -162 6 4 10
26 10 50 0 44 1 44 43 56 62 17 1167 -3 1198 -21 6 -5 13 -24 14 -44 4 -71 15
-48 15 31 0 64 -3 82 -16 87 -8 3 -13 9 -11 13 5 8 -1121 13 -1197 5z m-39
-64 c-3 -8 -6 -5 -6 6 -1 11 2 17 5 13 3 -3 4 -12 1 -19z"/>
<path d="M4271 7308 c-1 -31 0 -30 -91 -30 l-65 1 64 -9 c35 -5 66 -12 69 -15
3 -3 -89 -3 -204 0 -175 5 -212 9 -227 23 -18 16 -18 14 -15 -27 l3 -43 213 2
c117 0 223 5 236 10 28 10 41 55 27 91 l-10 24 0 -27z"/>
<path d="M5549 7298 c-3 -7 -3 -47 0 -88 3 -52 6 -66 10 -45 4 17 13 30 21 30
70 0 434 -17 443 -21 8 -3 12 9 11 33 -2 68 -4 75 -16 70 -7 -2 -12 -10 -10
-16 1 -8 -58 -11 -210 -11 -201 0 -248 6 -235 27 3 5 2 15 -2 22 -7 10 -9 10
-12 -1z"/>
<path d="M3848 7273 c7 -3 16 -2 19 1 4 3 -2 6 -13 5 -11 0 -14 -3 -6 -6z"/>
<path d="M3938 7273 c12 -2 32 -2 45 0 12 2 2 4 -23 4 -25 0 -35 -2 -22 -4z"/>
<path d="M5798 7273 c23 -2 61 -2 85 0 23 2 4 4 -43 4 -47 0 -66 -2 -42 -4z"/>
<path d="M5948 7273 c7 -3 16 -2 19 1 4 3 -2 6 -13 5 -11 0 -14 -3 -6 -6z"/>
<path d="M3765 7240 c-4 -6 -15 -8 -25 -5 -12 4 -24 -2 -33 -16 -9 -11 -20
-18 -26 -14 -6 3 -11 -1 -11 -10 0 -8 -11 -20 -24 -25 -13 -5 -27 -18 -31 -29
-3 -11 -12 -20 -18 -18 -7 1 -11 -6 -11 -16 1 -10 -9 -29 -23 -43 -25 -25 -25
-25 -18 -2 7 22 7 23 -8 3 -8 -11 -13 -23 -11 -27 2 -4 0 -9 -5 -13 -6 -3 -7
-13 -4 -22 4 -10 2 -14 -4 -10 -14 9 -35 -41 -28 -67 5 -15 4 -17 -3 -7 -8 11
-12 9 -18 -10 -4 -13 -7 -30 -6 -36 2 -7 -1 -13 -6 -13 -5 0 -24 -42 -41 -92
-18 -51 -36 -100 -41 -109 -5 -10 -4 -21 3 -29 9 -10 9 -11 0 -6 -7 4 -10 -1
-9 -11 4 -23 -16 -67 -24 -54 -3 6 -11 -4 -18 -21 -8 -23 -8 -28 0 -20 8 8 17
6 36 -8 27 -22 42 -25 42 -10 0 5 -11 12 -25 16 -29 7 -29 7 -7 55 33 72 129
121 165 85 11 -11 18 -13 22 -5 4 6 -2 17 -13 25 -17 12 -19 18 -10 41 13 35
74 83 104 83 13 0 29 6 36 13 10 11 16 10 34 -10 18 -20 23 -21 33 -9 10 11 8
16 -8 21 -28 9 -26 36 4 71 14 16 25 35 25 42 0 6 5 12 10 12 6 0 10 5 10 11
0 5 -5 7 -11 3 -8 -4 -9 4 -4 27 4 25 3 30 -4 19 -8 -11 -9 8 -4 65 3 44 9 81
13 83 10 4 0 52 -11 52 -5 0 -9 5 -9 11 0 5 4 8 9 5 5 -3 12 1 15 10 8 20 1
30 -9 14z"/>
<path d="M6031 7134 c0 -11 3 -14 6 -6 3 7 2 16 -1 19 -3 4 -6 -2 -5 -13z"/>
<path d="M4863 7123 c32 -2 81 -2 110 0 29 2 3 3 -58 3 -60 0 -84 -1 -52 -3z"/>
<path d="M3772 7100 c0 -14 2 -19 5 -12 2 6 2 18 0 25 -3 6 -5 1 -5 -13z"/>
<path d="M4698 7113 c12 -2 32 -2 45 0 12 2 2 4 -23 4 -25 0 -35 -2 -22 -4z"/>
<path d="M5083 7113 c15 -2 37 -2 50 0 12 2 0 4 -28 4 -27 0 -38 -2 -22 -4z"/>
<path d="M4500 7089 c-230 -48 -522 -170 -720 -301 -571 -379 -915 -1047 -887
-1723 41 -976 767 -1761 1757 -1901 140 -20 405 -19 550 1 450 63 845 258
1160 575 406 407 624 981 580 1529 -39 492 -233 915 -580 1261 -147 147 -380
323 -380 287 0 -7 -35 -72 -79 -145 l-78 -132 61 -41 c55 -38 120 -90 198
-158 16 -13 26 -27 23 -29 -3 -3 -11 1 -18 10 -21 27 -177 149 -177 139 0 -5
19 -23 43 -40 102 -76 282 -272 363 -396 21 -33 41 -62 44 -65 17 -17 110
-202 110 -218 0 -8 3 -12 7 -9 3 4 12 -7 19 -25 47 -128 58 -166 79 -268 13
-63 27 -146 31 -185 4 -38 10 -60 12 -47 3 22 5 22 158 22 l154 0 0 -85 0 -84
-159 2 -160 2 -6 -65 c-19 -199 -76 -398 -165 -585 -56 -115 -87 -169 -130
-221 -14 -17 -32 -40 -40 -50 -54 -68 -80 -98 -156 -174 -46 -47 -124 -114
-173 -150 -49 -36 -90 -68 -90 -71 -1 -4 29 -55 65 -115 107 -176 103 -156 35
-197 -97 -58 -86 -63 -175 87 -86 145 -84 144 -151 105 -48 -28 -262 -96 -371
-118 -326 -66 -671 -34 -970 89 -54 23 -106 43 -114 46 -11 3 -35 -31 -85
-118 -38 -68 -71 -129 -73 -135 -2 -7 -8 -13 -13 -13 -14 0 -149 79 -149 87 0
3 33 62 73 131 39 70 73 129 75 133 1 3 -44 40 -100 81 -535 393 -779 1040
-638 1687 11 47 31 119 45 160 30 89 135 311 147 311 4 0 8 4 8 9 0 15 62 111
71 111 5 0 9 5 9 11 0 20 41 69 52 63 6 -4 8 -3 5 3 -4 6 7 25 24 44 17 19 38
44 46 56 8 13 19 21 23 18 4 -2 12 7 18 20 7 14 16 25 22 25 6 0 8 -6 4 -12
-5 -9 -3 -9 9 1 9 7 14 17 12 22 -9 14 78 89 97 83 9 -3 19 0 23 5 4 7 -1 8
-11 4 -30 -11 -7 13 51 52 30 21 55 41 55 45 0 11 -142 244 -153 251 -14 10
123 99 153 99 5 0 10 -4 10 -10 0 -7 130 -230 145 -248 1 -1 49 18 107 42 225
96 427 137 677 137 260 -1 519 -55 704 -147 37 -19 67 -31 67 -26 0 5 35 67
78 139 71 120 79 130 100 122 12 -5 22 -6 22 -3 0 9 -167 84 -270 121 -109 39
-309 89 -390 96 -30 3 -47 3 -37 0 18 -5 23 -19 8 -25 -5 -1 -70 -61 -146
-133 -75 -71 -140 -131 -144 -133 -3 -1 -25 15 -48 35 -23 21 -92 83 -153 138
l-110 100 42 12 43 11 -40 0 c-22 0 -83 -9 -135 -19z m-15 -34 c-55 -13 -113
-26 -130 -30 -16 -4 -27 -5 -24 -2 8 9 200 56 229 56 14 0 -20 -11 -75 -24z
m-210 -55 c-27 -12 -43 -12 -25 0 8 5 22 9 30 9 10 0 8 -3 -5 -9z m823 -152
c-4 -46 -28 -49 -28 -4 0 26 4 36 16 36 11 0 14 -8 12 -32z m180 -20 c-4 -41
-28 -50 -28 -10 0 16 3 32 7 35 15 16 24 5 21 -25z m178 -50 c-8 -38 -13 -45
-27 -31 -6 6 -6 18 0 36 15 39 35 35 27 -5z m179 -37 c6 -11 -14 -61 -25 -61
-15 0 -18 13 -8 41 10 29 22 37 33 20z m325 -183 c0 -7 -9 -24 -19 -37 -24
-31 -39 -10 -17 24 18 27 36 33 36 13z m130 -143 c-16 -17 -27 -22 -34 -15 -6
6 -2 18 14 35 16 17 27 22 34 15 6 -6 2 -18 -14 -35z m150 -105 c0 -13 -49
-44 -57 -36 -9 8 38 57 48 50 5 -3 9 -9 9 -14z m313 -105 c2 -11 -180 -124
-200 -125 -34 0 -4 30 80 82 89 54 116 64 120 43z m-3178 -14 c88 -41 122
-114 75 -161 -41 -41 -151 -15 -199 46 -28 36 -27 79 4 109 29 30 65 32 120 6z
m2985 -19 c0 -4 -13 -16 -30 -25 -24 -15 -30 -15 -30 -4 0 8 10 21 23 30 21
14 37 14 37 -1z m265 -87 c49 -48 24 -115 -58 -154 -73 -35 -127 -25 -145 28
-16 44 13 90 78 124 65 33 94 34 125 2z m-3420 -25 c3 -5 -4 -28 -16 -51 -20
-41 -20 -43 -3 -56 24 -18 32 -16 39 8 4 11 21 27 39 36 29 13 37 14 62 2 57
-28 69 -94 24 -139 -24 -24 -60 -26 -60 -5 0 8 6 15 14 15 43 0 62 71 25 90
-33 18 -69 4 -85 -35 l-14 -35 -49 25 c-27 13 -52 29 -55 34 -6 10 54 120 66
121 4 0 10 -4 13 -10z m3340 -200 c6 -9 -33 -30 -56 -30 -18 0 -9 21 14 30 29
12 35 12 42 0z m65 -170 c0 -16 -51 -33 -63 -21 -7 7 -2 14 14 20 32 13 49 13
49 1z m50 -174 c0 -15 -21 -26 -52 -26 -27 0 -18 23 13 31 36 10 39 10 39 -5z
m30 -186 c0 -5 -16 -10 -35 -10 -19 0 -35 5 -35 10 0 6 16 10 35 10 19 0 35
-4 35 -10z m-3480 -204 l0 -83 -146 -7 c-80 -4 -148 -5 -152 -2 -3 3 -7 40
-10 82 -4 58 -1 78 9 85 8 5 78 9 157 9 l142 0 0 -84z m3315 -686 c3 -5 13
-36 21 -67 28 -112 45 -134 85 -112 16 8 20 19 17 52 -4 49 20 60 36 15 19
-54 -42 -125 -96 -110 -28 7 -56 57 -70 125 -7 31 -15 57 -18 57 -3 0 -16 -20
-30 -45 -14 -25 -30 -45 -37 -45 -17 0 -17 4 8 53 43 84 67 105 84 77z m-3166
-50 c10 -5 24 -23 31 -39 11 -27 9 -35 -10 -66 -13 -21 -41 -46 -71 -60 -74
-38 -119 -31 -147 22 -18 32 -15 48 14 83 49 57 135 86 183 60z m3133 -139
c49 -21 98 -72 98 -102 0 -11 -7 -33 -15 -49 -21 -40 -61 -47 -124 -19 -94 40
-128 113 -76 164 29 30 59 31 117 6z m-3068 -19 c9 5 25 7 34 3 15 -6 14 -9
-5 -25 -28 -23 -28 -22 2 -69 20 -33 22 -41 10 -51 -21 -17 -186 -11 -207 8
-10 8 -18 18 -18 21 0 3 31 24 70 45 58 33 68 42 60 57 -12 21 10 33 25 14 8
-9 16 -10 29 -3z m1461 -795 c54 -46 53 -174 -2 -216 -36 -29 -69 -26 -104 8
-27 27 -29 35 -29 99 0 61 3 75 26 101 32 38 72 41 109 8z m200 1 c26 -20 26
-22 9 -35 -15 -11 -20 -10 -36 7 -22 23 -37 25 -62 7 -29 -21 -17 -61 19 -67
35 -6 49 -40 16 -40 -31 0 -53 -27 -41 -51 11 -20 54 -26 65 -9 8 13 45 13 45
1 0 -32 -63 -58 -107 -44 -40 14 -58 54 -39 90 12 24 12 31 0 48 -56 76 53
154 131 93z m-775 -173 c19 -7 28 -14 20 -14 -8 0 -28 6 -45 14 -39 17 -21 18
25 0z m90 -25 c20 -6 21 -8 5 -8 -11 0 -29 3 -40 8 -25 11 1 11 35 0z m57 -16
c-3 -3 -12 -4 -19 -1 -8 3 -5 6 6 6 11 1 17 -2 13 -5z m178 -31 c67 -11 168
-16 305 -17 168 -1 191 -2 125 -9 -142 -14 -471 10 -570 43 -30 10 -30 10 5 5
19 -3 80 -13 135 -22z m742 21 c-3 -3 -12 -4 -19 -1 -8 3 -5 6 6 6 11 1 17 -2
13 -5z m-54 -11 c-7 -2 -19 -2 -25 0 -7 3 -2 5 12 5 14 0 19 -2 13 -5z m-50
-10 c-7 -2 -21 -2 -30 0 -10 3 -4 5 12 5 17 0 24 -2 18 -5z m-65 -10 c-10 -2
-28 -2 -40 0 -13 2 -5 4 17 4 22 1 32 -1 23 -4z"/>
<path d="M3270 6155 c-28 -34 38 -103 108 -112 76 -10 83 53 10 100 -46 30
-99 35 -118 12z"/>
<path d="M6530 6064 c-43 -19 -90 -62 -90 -84 0 -24 21 -40 53 -40 76 0 155
88 115 128 -16 16 -35 15 -78 -4z"/>
<path d="M3238 4337 c-53 -41 -63 -81 -24 -98 22 -10 33 -8 72 12 62 32 90 69
75 98 -18 33 -70 28 -123 -12z"/>
<path d="M6402 4229 c-29 -11 -29 -49 1 -76 68 -63 157 -70 157 -12 0 13 -61
79 -73 79 -1 0 -16 4 -32 9 -17 4 -40 4 -53 0z"/>
<path d="M3340 4142 l-45 -27 64 -3 c35 -2 65 -1 68 2 6 5 -27 56 -36 56 -3
-1 -26 -13 -51 -28z"/>
<path d="M4806 3408 c-18 -26 -22 -119 -6 -149 13 -23 52 -25 70 -4 7 8 13 43
13 77 0 52 -3 64 -22 80 -30 23 -37 23 -55 -4z"/>
<path d="M4096 7041 c-4 -5 -2 -12 4 -16 6 -4 8 -11 5 -16 -3 -5 1 -6 10 -3
13 5 13 9 3 23 -7 9 -13 17 -14 19 -1 2 -5 -1 -8 -7z"/>
<path d="M4835 7015 c-55 -54 -16 -145 60 -145 42 0 95 44 95 80 0 26 -18 61
-39 77 -28 22 -89 16 -116 -12z"/>
<path d="M3792 6995 c0 -16 2 -22 5 -12 2 9 2 23 0 30 -3 6 -5 -1 -5 -18z"/>
<path d="M3895 6940 c-3 -5 -1 -10 4 -10 6 0 11 5 11 10 0 6 -2 10 -4 10 -3 0
-8 -4 -11 -10z"/>
<path d="M3917 6923 c-4 -3 -7 -11 -7 -17 0 -6 5 -5 12 2 6 6 9 14 7 17 -3 3
-9 2 -12 -2z"/>
<path d="M3749 6874 c-10 -12 -10 -18 3 -30 14 -14 16 -13 20 10 6 32 -5 42
-23 20z"/>
<path d="M5930 6856 c0 -3 9 -10 20 -16 11 -6 20 -8 20 -6 0 3 -9 10 -20 16
-11 6 -20 8 -20 6z"/>
<path d="M3580 6759 c-24 -21 -24 -21 -5 -35 18 -13 21 -12 37 8 31 41 8 60
-32 27z"/>
<path d="M4608 6753 c6 -2 18 -2 25 0 6 3 1 5 -13 5 -14 0 -19 -2 -12 -5z"/>
<path d="M4558 6743 c7 -3 16 -2 19 1 4 3 -2 6 -13 5 -11 0 -14 -3 -6 -6z"/>
<path d="M4650 6714 c-460 -71 -881 -337 -1126 -711 -30 -44 -54 -84 -54 -87
0 -3 -13 -27 -29 -55 -51 -86 -121 -275 -147 -398 -31 -146 -43 -383 -25 -518
52 -386 216 -710 499 -979 111 -106 193 -162 362 -245 287 -141 494 -191 801
-192 190 -1 305 17 494 76 224 71 475 213 594 339 19 19 39 32 45 29 6 -3 8
-3 5 1 -8 9 40 62 52 58 5 -1 8 4 7 10 -2 7 3 12 10 10 6 -1 11 3 10 10 -2 7
3 12 11 13 8 0 15 9 17 19 1 11 13 29 25 40 21 20 22 20 8 1 -13 -18 -13 -19
3 -6 10 7 15 18 12 23 -7 12 26 49 37 42 5 -3 6 3 2 12 -4 12 -3 15 6 10 6 -4
10 -3 9 2 -5 17 64 122 75 115 5 -3 7 -1 4 5 -8 12 2 44 12 37 11 -6 43 54 37
70 -3 8 0 14 6 12 13 -3 61 109 94 223 83 283 85 598 7 875 -50 177 -87 258
-186 413 -117 186 -241 319 -418 450 -175 129 -450 246 -679 287 -132 24 -453
29 -580 9z m288 -81 c-2 -36 -7 -49 -20 -51 -15 -3 -18 4 -18 47 0 45 3 51 21
51 18 0 20 -5 17 -47z m-174 -11 c4 -29 3 -41 -4 -37 -5 3 -10 25 -10 47 0 51
5 47 14 -10z m315 -36 c-9 -8 -10 -3 -5 23 3 18 7 41 8 50 1 9 3 -1 5 -23 3
-22 -1 -43 -8 -50z m-474 4 c10 -59 -2 -47 -14 14 -5 26 -5 44 -1 39 4 -4 11
-28 15 -53z m640 -7 c-3 -19 -9 -33 -12 -30 -3 3 -2 25 2 49 5 24 10 37 12 30
3 -7 2 -29 -2 -49z m-795 -26 c18 -56 5 -57 -14 -1 -18 54 -19 62 -7 49 5 -6
14 -27 21 -48z m953 -3 c-8 -25 -17 -43 -20 -41 -7 7 19 87 28 87 4 0 1 -20
-8 -46z m-1099 -74 c5 -19 2 -16 -13 10 -11 19 -20 42 -20 50 0 18 24 -25 33
-60z m1251 15 c-10 -25 -20 -43 -23 -41 -2 3 4 25 13 51 10 25 20 43 23 41 2
-3 -4 -25 -13 -51z m-1263 -174 c49 -79 88 -146 88 -150 0 -3 -25 -21 -55 -39
-30 -18 -55 -38 -55 -44 0 -6 7 -5 18 3 15 13 16 12 4 -3 -10 -12 -10 -18 -1
-24 8 -4 9 -3 5 4 -11 17 9 15 24 -3 7 -8 18 -15 24 -15 6 0 5 4 -3 9 -10 7
-7 9 12 8 15 -1 27 -3 27 -4 0 -4 -69 -43 -77 -43 -5 0 -16 12 -23 28 -8 15
-22 36 -31 47 -38 47 -181 297 -173 305 22 19 110 69 119 67 5 -2 49 -68 97
-146z m1452 84 c18 -14 17 -18 -34 -102 -94 -155 -182 -283 -194 -283 -6 0
-20 8 -31 16 -20 16 -19 16 4 9 18 -6 22 -4 15 6 -6 12 -5 12 9 0 15 -11 17
-11 17 2 0 8 6 17 13 20 17 6 -2 27 -57 62 -44 28 -45 28 -30 57 8 16 39 66
68 111 29 45 65 101 80 125 l27 43 47 -26 c26 -14 56 -32 66 -40z m-968 -7
c25 -35 51 -63 58 -63 6 0 12 22 14 55 4 61 11 70 64 70 62 0 92 -21 47 -33
-19 -5 -21 -11 -15 -39 3 -18 13 -40 22 -48 13 -13 18 -11 49 25 20 22 43 52
52 68 16 26 21 27 95 27 79 0 95 -9 58 -32 -11 -7 -20 -19 -20 -28 0 -14 -17
-34 -72 -88 -16 -15 -28 -33 -28 -42 0 -8 -9 -21 -20 -28 -11 -7 -20 -19 -20
-27 0 -8 -8 -19 -19 -24 -10 -6 -22 -22 -25 -36 -6 -25 -8 -25 -106 -25 -98 0
-101 1 -110 25 -5 14 -16 28 -24 31 -9 3 -18 15 -22 26 -3 11 -15 29 -25 39
-10 10 -19 25 -19 33 0 8 -9 18 -20 21 -11 3 -23 17 -26 30 -3 13 -15 27 -25
30 -10 4 -19 15 -19 25 0 10 -11 25 -25 34 -39 26 -21 36 61 36 l74 0 46 -62z
m-762 -50 l27 -43 -30 35 c-27 32 -38 50 -27 50 2 0 15 -19 30 -42z m1829 1
c-10 -17 -24 -36 -32 -42 -17 -14 -11 -1 21 46 26 37 33 34 11 -4z m-1928
-137 c-5 -6 -64 62 -65 73 0 6 16 -8 34 -30 19 -22 33 -42 31 -43z m2056 40
c-21 -30 -51 -58 -51 -49 0 8 60 77 67 77 2 0 -5 -13 -16 -28z m-2196 -112
c16 -16 26 -32 24 -35 -3 -2 -20 11 -38 30 -18 19 -29 35 -24 35 5 0 22 -13
38 -30z m2304 -15 c-19 -19 -38 -35 -43 -35 -6 0 5 16 24 35 19 19 38 35 43
35 5 0 -6 -16 -24 -35z m-2384 -133 c-3 -3 -20 9 -38 27 l-32 34 38 -28 c21
-15 35 -30 32 -33z m2503 27 c-10 -5 -15 -16 -12 -23 7 -18 -39 -60 -246 -227
-91 -73 -204 -167 -253 -210 -48 -42 -120 -96 -160 -120 -39 -23 -169 -105
-288 -181 -158 -101 -219 -145 -223 -162 -3 -12 -18 -35 -32 -49 -21 -21 -36
-27 -70 -27 -28 0 -44 5 -44 12 0 24 -19 -10 -135 -237 -65 -126 -164 -321
-222 -433 -57 -111 -101 -207 -98 -212 6 -9 -28 -76 -45 -90 -6 -5 -44 -72
-115 -205 -56 -105 -53 -103 -124 -64 -34 19 -61 38 -61 44 0 6 34 69 76 141
41 71 89 155 106 187 17 31 35 57 40 57 5 0 30 -12 54 -26 25 -15 46 -25 48
-23 2 2 45 87 95 188 51 101 96 191 101 200 5 9 61 120 124 248 l115 232 -24
43 c-24 43 -27 45 -282 156 -392 172 -354 147 -446 290 -44 67 -77 125 -74
128 5 6 251 -13 292 -21 11 -3 70 -41 130 -85 61 -44 183 -132 272 -196 162
-115 163 -115 215 -112 l52 3 103 150 c120 174 114 167 132 156 11 -7 -1 -30
-55 -107 -95 -134 -94 -133 -22 -73 35 30 129 105 209 168 140 109 160 121
490 288 189 96 353 183 363 193 11 11 22 17 25 14 3 -3 -2 -10 -11 -15z
m-2381 -192 c51 -29 93 -55 93 -59 0 -10 -71 -128 -77 -128 -3 0 -20 8 -37 19
-17 10 -86 51 -153 90 l-122 71 30 53 c49 83 44 81 113 42 33 -20 103 -59 153
-88z m2449 43 c25 -42 30 -58 21 -67 -16 -15 -290 -163 -303 -163 -10 0 -54
79 -53 95 1 30 255 199 288 193 8 -2 29 -28 47 -58z m-1783 -12 l13 -33 12 33
c9 26 16 32 41 32 16 0 36 -7 44 -15 13 -13 16 -13 27 0 18 21 36 19 54 -7
l16 -22 0 22 c0 15 6 22 19 22 24 0 43 -23 35 -43 -3 -9 -1 -24 5 -34 8 -14
10 -9 11 30 0 26 5 47 10 47 6 0 10 -10 10 -22 l0 -22 16 22 c13 19 21 21 57
16 23 -4 50 -14 60 -22 15 -14 17 -13 17 1 0 10 8 17 20 17 13 0 18 -5 14 -15
-4 -8 -2 -15 4 -15 5 0 12 6 15 14 3 8 21 16 39 18 31 3 34 0 50 -42 l16 -45
1 48 c1 26 6 47 12 47 22 0 50 -22 48 -38 -4 -45 5 -51 10 -7 l7 50 14 -30 c8
-16 19 -33 24 -36 5 -4 6 -15 2 -25 -7 -17 -9 -15 -22 11 l-14 30 4 -27 c3
-24 0 -28 -20 -28 -17 0 -24 6 -24 20 0 11 -5 20 -11 20 -6 0 -9 -9 -6 -20 4
-17 0 -20 -24 -20 -19 0 -29 5 -29 15 0 8 -5 15 -10 15 -6 0 -13 -7 -16 -15
-4 -8 -10 -15 -15 -15 -4 0 -1 16 7 36 21 50 12 52 -26 4 -41 -52 -65 -51
-109 3 -22 27 -31 34 -27 20 16 -49 -48 -89 -73 -45 -10 16 -10 16 -11 0 0
-12 -8 -18 -25 -18 -25 0 -31 14 -27 63 1 9 -3 17 -9 17 -7 0 -10 -15 -7 -40
2 -28 0 -40 -9 -40 -7 0 -13 8 -13 18 -1 16 -1 16 -11 0 -16 -28 -58 -23 -69
7 -9 22 -13 24 -31 15 -12 -7 -18 -18 -15 -26 4 -10 -2 -14 -19 -14 -20 0 -25
5 -26 28 l-1 27 -12 -28 -12 -28 -12 23 -11 23 0 -22 c-1 -20 -6 -23 -41 -23
l-40 0 0 50 0 50 40 0 c36 0 41 -3 53 -32z m776 -20 c8 23 18 42 22 42 5 0 14
-19 21 -42 l12 -43 6 50 c5 53 6 53 46 0 14 -19 14 -19 12 10 -2 24 1 30 16
30 16 0 19 -8 20 -48 1 -58 -13 -63 -16 -4 l-1 42 -4 -42 c-4 -45 -17 -56 -28
-24 -3 11 -13 25 -22 33 -14 11 -15 9 -11 -20 4 -28 2 -32 -19 -32 -14 0 -23
6 -23 15 0 8 -5 15 -10 15 -6 0 -13 -7 -16 -15 -4 -8 -14 -15 -24 -15 -23 0
-34 54 -17 83 11 20 12 18 17 -28 l6 -50 13 43z m-1719 -113 c0 -3 -18 4 -40
15 -22 11 -40 23 -40 25 0 3 18 -4 40 -15 22 -11 40 -23 40 -25z m2830 20 c0
-2 -18 -14 -40 -25 -22 -11 -40 -17 -40 -12 0 5 15 16 33 25 34 17 47 20 47
12z m20 -35 c0 -5 -5 -10 -11 -10 -5 0 -7 5 -4 10 3 6 8 10 11 10 2 0 4 -4 4
-10z m20 -34 c0 -2 -7 -7 -16 -10 -8 -3 -12 -2 -9 4 6 10 25 14 25 6z m10 -40
c0 -3 -4 -8 -10 -11 -5 -3 -10 -1 -10 4 0 6 5 11 10 11 6 0 10 -2 10 -4z
m-2941 -51 c2 -3 -1 -5 -8 -5 -14 0 -71 28 -71 35 0 5 70 -22 79 -30z m2926
-5 c-22 -10 -47 -18 -55 -18 -8 0 3 8 25 19 22 10 47 18 55 18 8 0 -3 -9 -25
-19z m52 -66 c-3 -3 -12 -4 -19 -1 -8 3 -5 6 6 6 11 1 17 -2 13 -5z m-3027
-75 c25 -14 -9 -10 -50 7 l-35 14 35 -6 c19 -4 42 -10 50 -15z m3050 2 c0 -5
-12 -11 -27 -14 -16 -3 -36 -9 -45 -12 -10 -4 -18 -3 -18 3 0 5 19 14 43 19
23 6 43 11 45 12 1 0 2 -3 2 -8z m-375 -81 c4 -6 -16 -10 -52 -11 -32 0 -52
-3 -45 -6 19 -7 15 -18 -19 -51 -26 -25 -30 -35 -24 -61 4 -17 12 -31 18 -31
7 0 18 -9 25 -21 11 -17 11 -25 -4 -46 -11 -18 -15 -39 -11 -70 2 -24 1 -46
-4 -49 -5 -3 -9 -23 -9 -45 0 -47 21 -59 105 -59 50 0 57 3 96 42 72 73 95
156 69 248 -14 49 -70 132 -100 147 -15 8 -19 13 -9 13 21 0 73 -57 99 -110
12 -25 25 -47 27 -50 3 -3 50 -7 106 -10 94 -5 102 -7 101 -25 -1 -11 -2 -44
-2 -72 l-2 -53 -100 0 -101 0 -17 -32 c-9 -17 -34 -51 -56 -75 -30 -34 -43
-42 -61 -37 -13 3 -26 1 -29 -5 -4 -6 0 -11 10 -11 10 0 15 -1 13 -3 -2 -1
-75 0 -161 3 -114 4 -161 9 -170 19 -11 11 -1 13 60 8 l73 -4 -40 18 c-23 10
-41 23 -41 30 0 7 20 34 45 60 25 26 45 57 45 68 0 11 -13 35 -29 54 -31 35
-30 50 5 61 12 4 24 17 26 31 6 27 -11 35 -74 35 -25 0 -44 7 -58 22 -18 20
-19 23 -3 40 9 10 11 18 5 18 -6 0 -31 -24 -56 -52 -47 -54 -56 -57 -32 -10
33 63 60 77 164 83 162 10 211 9 217 -1z m392 -46 c-3 -3 -12 -4 -19 -1 -8 3
-5 6 6 6 11 1 17 -2 13 -5z m-3082 -35 c11 -11 -48 -1 -80 13 -13 5 -4 6 25 2
25 -3 49 -10 55 -15z m3085 2 c0 -9 -80 -25 -87 -17 -3 2 15 9 39 14 23 5 44
10 46 11 1 1 2 -3 2 -8z m-797 -107 c-11 -66 -5 -114 13 -114 8 0 14 7 14 16
0 12 6 15 26 10 18 -5 32 -2 44 9 26 24 74 16 78 -13 3 -16 -12 -37 -53 -78
-37 -36 -55 -60 -51 -70 4 -10 1 -14 -6 -12 -19 7 -70 99 -64 115 3 8 2 12 -3
8 -16 -9 -23 72 -11 130 14 68 25 67 13 -1z m-1970 20 l77 -7 0 -73 0 -74
-235 0 -236 0 3 73 3 72 50 6 c73 9 250 10 338 3z m2487 -101 c-7 -32 -17 -66
-22 -76 -9 -17 -11 -18 -28 -2 -17 15 -17 19 -2 47 12 24 13 38 5 59 -11 27
-10 28 18 22 20 -4 29 -1 29 7 0 8 3 11 6 7 3 -3 0 -32 -6 -64z m-470 27 c-19
-13 -30 -13 -30 0 0 6 10 10 23 10 18 0 19 -2 7 -10z m354 -6 c19 -7 21 -35 4
-52 -17 -17 -53 -15 -68 3 -10 13 -10 19 5 35 19 21 33 24 59 14z m21 -145
c20 -37 20 -37 -20 -45 -53 -10 -85 2 -85 30 0 26 15 42 45 48 30 6 44 -1 60
-33z m-2715 1 c0 -5 -20 -10 -45 -10 -25 0 -45 5 -45 10 0 6 20 10 45 10 25 0
45 -4 45 -10z m3073 -17 c-13 -2 -35 -2 -50 0 -16 2 -5 4 22 4 28 0 40 -2 28
-4z m-3068 -143 c-44 -11 -67 -11 -60 0 3 6 25 9 48 9 40 -1 40 -2 12 -9z
m3040 -10 c29 -7 29 -8 -10 -9 -22 0 -47 4 -55 9 -12 8 -10 9 10 9 14 -1 39
-5 55 -9z m2 -86 c-3 -3 -12 -4 -19 -1 -8 3 -5 6 6 6 11 1 17 -2 13 -5z
m-2992 -53 c-40 -16 -75 -21 -75 -12 0 9 31 17 75 19 l20 1 -20 -8z m2960 -23
c7 -7 -1 -8 -25 -3 -53 11 -74 28 -25 20 22 -4 45 -11 50 -17z m-2469 -54 c20
-36 35 -67 33 -69 -10 -9 -388 -215 -395 -215 -15 0 -77 121 -68 130 8 7 385
219 391 220 1 0 19 -29 39 -66z m1994 34 c19 -12 98 -57 175 -100 77 -44 147
-86 154 -93 13 -13 12 -20 -9 -57 -43 -80 -47 -82 -96 -53 -23 14 -109 61
-191 106 -81 44 -152 84 -156 88 -10 10 61 131 77 131 6 0 27 -10 46 -22z
m450 -58 c0 -5 -2 -10 -4 -10 -3 0 -8 5 -11 10 -3 6 -1 10 4 10 6 0 11 -4 11
-10z m-2865 -39 c-14 -12 -85 -34 -91 -28 -3 3 14 12 38 20 51 18 66 21 53 8z
m2834 -36 c8 -8 -15 -5 -48 6 -17 6 -31 15 -31 20 0 8 66 -14 79 -26z m52 -8
c-10 -9 -11 -8 -5 6 3 10 9 15 12 12 3 -3 0 -11 -7 -18z m-1733 -82 c4 -45
-10 -64 -33 -45 -18 15 -20 61 -3 78 20 20 33 8 36 -33z m60 33 c17 -17 15
-63 -3 -78 -22 -18 -38 0 -37 39 1 49 16 63 40 39z m460 -6 c2 -7 -2 -10 -12
-6 -9 3 -16 1 -16 -4 0 -6 9 -14 20 -17 11 -3 20 -12 20 -19 0 -20 -27 -39
-45 -32 -22 8 -18 25 5 19 11 -3 20 -1 20 5 0 6 -9 14 -20 17 -11 3 -20 15
-20 25 0 28 39 38 48 12z m-600 -39 l-1 -48 -4 43 c-2 23 -8 40 -14 37 -5 -4
-9 -1 -9 4 0 6 7 11 15 11 11 0 15 -11 13 -47z m217 20 l8 -28 10 28 c16 41
27 33 26 -20 -1 -37 -3 -42 -8 -23 l-7 25 -8 -24 -8 -24 -14 24 -13 24 -1 -23
c0 -13 -4 -21 -8 -18 -10 6 -3 86 8 86 4 0 11 -12 15 -27z m178 20 c-8 -2 -13
-22 -13 -44 0 -21 -5 -39 -11 -39 -6 0 -9 15 -7 38 3 36 2 37 -34 40 -42 4
-51 -11 -15 -23 l22 -8 -22 -4 c-28 -5 -30 -23 -3 -23 11 0 20 -4 20 -10 0 -5
-11 -10 -25 -10 -23 0 -25 4 -25 45 l0 45 63 -1 c34 0 56 -3 50 -6z m55 0
c-10 -2 -18 -9 -18 -14 0 -5 8 -9 18 -9 16 -1 16 -1 0 -11 -22 -12 -23 -29 -3
-29 8 0 15 -4 15 -10 0 -5 -11 -10 -25 -10 -23 0 -25 4 -25 45 0 43 1 45 28
44 16 -1 20 -3 10 -6z m86 -1 c3 -5 2 -26 -1 -47 -6 -37 -6 -37 -19 -14 l-13
24 -10 -25 c-9 -22 -10 -20 -10 23 -1 43 1 47 23 47 14 0 27 -4 30 -8z m-1454
-169 c0 -10 -58 -43 -73 -43 -7 0 6 12 28 25 45 28 45 28 45 18z m2480 -25
c22 -13 40 -27 40 -31 0 -8 -63 25 -84 45 -18 15 5 8 44 -14z m-587 -88 c12
-25 56 -101 95 -169 40 -69 71 -129 69 -135 -3 -6 -30 -25 -61 -43 l-56 -32
-33 52 c-18 29 -55 90 -82 137 -28 47 -64 107 -82 134 -18 26 -33 53 -33 60 0
6 28 28 63 48 l62 37 17 -22 c9 -12 28 -42 41 -67z m-1923 46 c0 -3 -4 -8 -10
-11 -5 -3 -10 -1 -10 4 0 6 5 11 10 11 6 0 10 -2 10 -4z m30 -30 c0 -3 -4 -8
-10 -11 -5 -3 -10 -1 -10 4 0 6 5 11 10 11 6 0 10 -2 10 -4z m2460 -16 c0 -5
-2 -10 -4 -10 -3 0 -8 5 -11 10 -3 6 -1 10 4 10 6 0 11 -4 11 -10z m-2360 -9
c0 -10 -62 -52 -68 -46 -5 5 50 54 61 55 4 0 7 -4 7 -9z m2294 -40 c11 -12 15
-21 10 -21 -10 1 -64 46 -64 55 0 10 34 -12 54 -34z m41 19 c3 -5 2 -10 -4
-10 -5 0 -13 5 -16 10 -3 6 -2 10 4 10 5 0 13 -4 16 -10z m-2330 -80 c-3 -5
-11 -10 -16 -10 -6 0 -7 5 -4 10 3 6 11 10 16 10 6 0 7 -4 4 -10z m1191 -82
c-3 -50 -6 -151 -6 -225 l0 -134 -72 3 -73 3 -3 223 -2 222 81 0 82 0 -7 -92z
m-1114 40 c-17 -18 -34 -29 -38 -26 -3 4 9 20 28 36 43 39 51 31 10 -10z
m2083 2 c16 -16 26 -32 24 -35 -3 -2 -21 11 -39 30 -19 19 -29 35 -24 35 6 0
23 -13 39 -30z m-2130 10 c-3 -5 -11 -10 -16 -10 -6 0 -7 5 -4 10 3 6 11 10
16 10 6 0 7 -4 4 -10z m2185 -10 c0 -5 -2 -10 -4 -10 -3 0 -8 5 -11 10 -3 6
-1 10 4 10 6 0 11 -4 11 -10z m-2006 -95 c-14 -19 -31 -35 -36 -35 -10 0 -3
12 31 53 27 33 32 17 5 -18z m1826 -6 c31 -43 18 -47 -14 -4 -15 19 -23 35
-17 35 5 0 19 -14 31 -31z m-1888 -1 c-7 -7 -12 -8 -12 -2 0 6 3 14 7 17 3 4
9 5 12 2 2 -3 -1 -11 -7 -17z m1938 2 c0 -5 -2 -10 -4 -10 -3 0 -8 5 -11 10
-3 6 -1 10 4 10 6 0 11 -4 11 -10z m-1600 -161 c-12 -23 -24 -39 -26 -36 -7 7
28 77 38 77 5 0 -1 -18 -12 -41z m1265 10 c9 -17 14 -36 12 -42 -4 -12 -37 44
-37 63 0 18 9 11 25 -21z m-1096 -26 c-2 -19 -38 -86 -38 -72 -1 24 20 79 30
79 5 0 9 -3 8 -7z m940 -15 c18 -50 22 -68 13 -68 -7 0 -32 64 -32 84 0 14 11
5 19 -16z m-1079 -2 c0 -3 -4 -8 -10 -11 -5 -3 -10 -1 -10 4 0 6 5 11 10 11 6
0 10 -2 10 -4z m1207 -18 c-3 -8 -6 -5 -6 6 -1 11 2 17 5 13 3 -3 4 -12 1 -19z
m-1174 -3 c-3 -9 -8 -14 -10 -11 -3 3 -2 9 2 15 9 16 15 13 8 -4z m247 -44
c-6 -23 -13 -41 -16 -41 -7 0 5 70 13 83 12 19 14 -4 3 -42z m648 1 c6 -23 6
-42 2 -42 -9 0 -30 77 -22 85 8 8 10 3 20 -43z m247 38 c3 -5 1 -10 -4 -10 -6
0 -11 5 -11 10 0 6 2 10 4 10 3 0 8 -4 11 -10z m-35 -21 c0 -6 -4 -7 -10 -4
-5 3 -10 11 -10 16 0 6 5 7 10 4 6 -3 10 -11 10 -16z m-993 -21 c-3 -8 -6 -5
-6 6 -1 11 2 17 5 13 3 -3 4 -12 1 -19z m297 -15 c-7 -40 -11 -49 -19 -42 -8
8 7 79 17 79 5 0 6 -17 2 -37z m326 -16 c0 -31 -3 -38 -10 -27 -13 20 -13 83
0 75 6 -3 10 -25 10 -48z m-583 21 c-3 -8 -6 -5 -6 6 -1 11 2 17 5 13 3 -3 4
-12 1 -19z m868 12 c3 -5 1 -10 -4 -10 -6 0 -11 5 -11 10 0 6 2 10 4 10 3 0 8
-4 11 -10z m-828 -22 c-3 -8 -6 -5 -6 6 -1 11 2 17 5 13 3 -3 4 -12 1 -19z
m788 12 c3 -5 1 -10 -4 -10 -6 0 -11 5 -11 10 0 6 2 10 4 10 3 0 8 -4 11 -10z
m-40 -10 c3 -5 1 -10 -4 -10 -6 0 -11 5 -11 10 0 6 2 10 4 10 3 0 8 -4 11 -10z
m-668 -22 c-3 -8 -6 -5 -6 6 -1 11 2 17 5 13 3 -3 4 -12 1 -19z m580 0 c-3 -8
-6 -5 -6 6 -1 11 2 17 5 13 3 -3 4 -12 1 -19z m-527 8 c0 -3 -4 -8 -10 -11 -5
-3 -10 -1 -10 4 0 6 5 11 10 11 6 0 10 -2 10 -4z m487 -18 c-3 -8 -6 -5 -6 6
-1 11 2 17 5 13 3 -3 4 -12 1 -19z m-447 8 c0 -3 -4 -8 -10 -11 -5 -3 -10 -1
-10 4 0 6 5 11 10 11 6 0 10 -2 10 -4z"/>
<path d="M4890 5136 c0 -8 4 -17 8 -20 13 -8 35 11 28 23 -10 16 -36 14 -36
-3z"/>
<path d="M4955 5089 c-4 -6 -5 -12 -2 -15 2 -3 7 2 10 11 7 17 1 20 -8 4z"/>
<path d="M4410 5858 c0 -19 2 -20 10 -8 8 12 10 10 10 -8 0 -13 -4 -20 -10
-17 -5 3 -10 -1 -10 -9 0 -9 7 -16 15 -16 8 0 15 6 15 13 0 8 4 7 10 -3 7 -11
10 -5 10 23 0 21 -4 36 -9 32 -5 -3 -12 -1 -16 5 -11 18 -25 11 -25 -12z"/>
<path d="M4631 5866 c-16 -20 -6 -66 14 -66 21 0 31 48 13 66 -13 13 -16 13
-27 0z"/>
<path d="M4810 5865 c-17 -21 -4 -67 18 -63 22 4 28 51 9 66 -11 10 -17 9 -27
-3z"/>
<path d="M4530 5841 c0 -17 5 -33 10 -36 6 -4 10 8 10 29 0 20 -4 36 -10 36
-5 0 -10 -13 -10 -29z"/>
<path d="M4560 5855 c0 -8 5 -15 10 -15 6 0 10 7 10 15 0 8 -4 15 -10 15 -5 0
-10 -7 -10 -15z"/>
<path d="M5110 5854 c0 -8 5 -12 10 -9 6 3 10 10 10 16 0 5 -4 9 -10 9 -5 0
-10 -7 -10 -16z"/>
<path d="M5995 4900 c3 -5 14 -10 23 -10 15 0 15 2 2 10 -20 13 -33 13 -25 0z"/>
<path d="M4660 4390 c0 -16 5 -30 10 -30 6 0 10 14 10 30 0 17 -4 30 -10 30
-5 0 -10 -13 -10 -30z"/>
<path d="M4720 4390 c0 -16 5 -30 10 -30 6 0 10 14 10 30 0 17 -4 30 -10 30
-5 0 -10 -13 -10 -30z"/>
<path d="M5105 4411 c-6 -11 9 -23 19 -14 9 9 7 23 -3 23 -6 0 -12 -4 -16 -9z"/>
<path d="M3416 6621 c-20 -22 -14 -41 13 -41 27 0 54 33 39 48 -17 17 -32 15
-52 -7z"/>
<path d="M5707 6579 c7 -7 15 -10 18 -7 3 3 -2 9 -12 12 -14 6 -15 5 -6 -5z"/>
<path d="M6435 6580 c6 -10 1 -12 -18 -8 -15 3 -24 1 -21 -3 7 -12 41 -11 49
0 3 5 0 13 -6 17 -8 5 -9 3 -4 -6z"/>
<path d="M5865 6480 c3 -5 14 -10 23 -10 15 0 15 2 2 10 -20 13 -33 13 -25 0z"/>
<path d="M3302 6466 c10 -7 17 -15 15 -17 -1 -2 2 -1 7 2 12 10 -2 29 -22 29
-16 -1 -16 -2 0 -14z"/>
<path d="M6533 6426 c2 -6 14 -13 26 -14 15 -3 22 1 19 9 -2 7 -14 13 -26 14
-13 1 -21 -3 -19 -9z"/>
<path d="M3196 6331 c-4 -5 4 -7 16 -3 14 3 19 1 14 -6 -5 -8 -2 -10 8 -6 9 3
16 10 16 15 0 12 -47 12 -54 0z"/>
<path d="M6650 6280 c-8 -5 -10 -10 -5 -10 6 0 17 5 25 10 8 5 11 10 5 10 -5
0 -17 -5 -25 -10z"/>
<path d="M3664 6248 l-19 -23 23 19 c21 18 27 26 19 26 -2 0 -12 -10 -23 -22z"/>
<path d="M3090 6145 c0 -7 30 -13 34 -7 3 4 -4 9 -15 9 -10 1 -19 0 -19 -2z"/>
<path d="M7034 5398 c-3 -4 2 -8 10 -8 8 0 19 -6 23 -14 4 -8 21 -16 36 -18
l28 -3 -30 -35 c-26 -31 -30 -43 -31 -97 0 -49 -3 -63 -15 -63 -10 0 -15 -11
-15 -35 0 -19 4 -35 9 -35 11 0 2 -118 -10 -142 -7 -13 -4 -20 11 -28 12 -7
20 -20 19 -33 -1 -12 -1 -38 -1 -58 l2 -36 57 -7 c34 -4 60 -3 67 4 13 13 53
13 61 0 3 -5 19 -10 36 -10 24 0 29 4 29 25 0 22 -3 25 -25 19 -21 -5 -25 -3
-26 17 -1 13 -1 27 -1 30 1 3 -6 6 -14 6 -7 0 -14 -5 -14 -10 0 -5 -7 -7 -15
-3 -8 3 -15 0 -15 -7 0 -7 -4 -18 -9 -25 -10 -17 -61 -5 -61 13 0 7 -6 16 -12
18 -7 3 7 6 32 8 l45 2 -50 7 c-46 6 -47 7 -15 10 33 3 41 4 65 10 6 2 -8 6
-30 9 -34 5 -40 10 -40 31 0 21 5 26 33 28 43 4 41 22 -3 22 -24 0 -35 5 -35
14 0 8 -6 16 -12 18 -10 4 -10 10 -1 31 10 22 20 27 50 29 l38 1 -34 4 c-30 4
-33 7 -29 34 3 16 0 29 -5 29 -5 0 -7 7 -3 15 3 9 0 15 -10 15 -26 0 -9 25 22
31 23 5 24 7 7 8 -39 2 -24 35 20 46 31 8 47 -15 28 -39 -10 -12 -8 -13 8 -9
12 3 18 9 15 14 -3 5 2 9 10 9 8 0 18 -6 23 -12 5 -9 9 -3 13 17 3 21 12 31
26 33 21 3 22 9 15 90 -1 8 -20 12 -58 13 -32 0 -93 6 -136 13 -43 7 -80 9
-83 4z m212 -34 c18 -5 20 -11 15 -37 -5 -24 -12 -31 -29 -31 -12 0 -21 2 -20
4 1 3 -4 16 -11 29 -11 19 -11 25 0 32 17 10 18 10 45 3z"/>
<path d="M7210 5170 c8 -5 20 -10 25 -10 6 0 3 5 -5 10 -8 5 -19 10 -25 10 -5
0 -3 -5 5 -10z"/>
<path d="M7260 5160 c0 -11 4 -20 9 -20 5 0 7 9 4 20 -3 11 -7 20 -9 20 -2 0
-4 -9 -4 -20z"/>
<path d="M7330 5090 l-75 -6 78 -2 c46 -1 77 2 77 8 0 6 -1 9 -2 8 -2 -1 -37
-4 -78 -8z"/>
<path d="M7128 5043 c6 -2 18 -2 25 0 6 3 1 5 -13 5 -14 0 -19 -2 -12 -5z"/>
<path d="M7193 5043 c11 -3 16 -11 13 -19 -5 -13 10 -19 42 -15 7 1 12 -11 12
-31 0 -22 3 -29 9 -20 6 10 27 13 74 10 56 -2 67 0 71 14 3 14 1 16 -14 8 -23
-13 -117 -13 -124 -1 -4 5 -7 21 -8 35 -2 24 -6 26 -48 25 -25 -1 -37 -3 -27
-6z"/>
<path d="M7288 5043 c7 -3 16 -2 19 1 4 3 -2 6 -13 5 -11 0 -14 -3 -6 -6z"/>
<path d="M7470 5026 c0 -19 4 -23 20 -19 11 3 20 14 20 24 0 12 -7 19 -20 19
-14 0 -20 -7 -20 -24z"/>
<path d="M7260 4900 c0 -5 11 -10 24 -10 14 0 28 5 31 10 4 6 -7 10 -24 10
-17 0 -31 -4 -31 -10z"/>
<path d="M6984 4865 c11 -8 25 -15 30 -15 6 0 2 7 -8 15 -11 8 -25 15 -30 15
-6 0 -2 -7 8 -15z"/>
<path d="M7318 4873 c23 -2 59 -2 80 0 20 2 1 4 -43 4 -44 0 -61 -2 -37 -4z"/>
<path d="M7343 4843 c9 -2 23 -2 30 0 6 3 -1 5 -18 5 -16 0 -22 -2 -12 -5z"/>
<path d="M7002 4700 c0 -14 2 -19 5 -12 2 6 2 18 0 25 -3 6 -5 1 -5 -13z"/>
<path d="M6941 4464 c0 -11 3 -14 6 -6 3 7 2 16 -1 19 -3 4 -6 -2 -5 -13z"/>
<path d="M3267 3739 c3 -10 9 -19 13 -19 4 0 18 -20 31 -45 13 -25 28 -45 33
-45 4 0 6 -9 3 -21 -5 -17 -3 -18 11 -7 10 8 13 9 9 1 -10 -17 38 -65 66 -67
15 0 23 -6 20 -13 -3 -7 6 -17 19 -22 13 -5 30 -16 37 -25 7 -9 18 -16 23 -16
6 0 5 7 -2 15 -7 8 -8 15 -3 15 14 0 46 -37 36 -42 -4 -3 -2 -3 5 -2 6 2 12 0
12 -5 0 -5 22 -19 49 -32 27 -13 48 -26 46 -29 -2 -3 5 -7 16 -7 18 -2 19 0 8
15 -26 34 -63 62 -81 62 -27 0 -86 49 -104 87 -11 21 -32 40 -62 54 -61 29
-90 55 -97 89 -7 32 -43 69 -72 74 -16 4 -20 0 -16 -15z"/>
<path d="M6498 3713 c-18 -21 -31 -43 -25 -43 2 0 16 14 30 30 15 17 23 30 19
30 -5 0 -16 -8 -24 -17z"/>
<path d="M6448 3627 c-21 -21 -23 -27 -10 -25 9 2 23 14 30 27 17 32 12 32
-20 -2z"/>
<path d="M6341 3561 c-17 -16 -31 -36 -31 -44 0 -18 -62 -67 -85 -67 -29 0
-74 -30 -89 -58 -8 -15 -31 -37 -50 -47 -33 -18 -36 -23 -36 -65 0 -33 5 -50
19 -62 18 -15 21 -15 36 3 10 10 26 21 36 24 11 4 19 13 19 21 0 8 9 14 20 14
11 0 20 6 20 13 0 10 31 47 107 130 10 10 12 17 5 17 -7 0 -12 5 -12 12 0 6 3
8 7 5 3 -4 20 8 37 26 17 19 38 36 46 40 9 3 3 6 -13 6 -16 1 -26 5 -23 10 3
5 16 7 29 3 20 -5 21 -4 7 13 -9 11 -10 16 -2 11 17 -10 38 4 21 15 -23 14
-35 10 -68 -20z"/>
<path d="M6003 3319 c-27 -10 -31 -23 -5 -15 15 5 17 -1 14 -49 -2 -33 0 -55
6 -55 6 0 13 -12 15 -27 2 -16 4 -5 5 22 0 28 -3 69 -6 91 -6 38 -9 41 -29 33z"/>
<path d="M3771 3288 c0 -32 1 -32 10 -8 6 13 15 28 22 32 8 5 4 8 -10 8 -19 0
-23 -5 -22 -32z"/>
<path d="M4040 3195 c14 -8 30 -14 35 -14 6 0 -1 6 -15 14 -14 8 -29 14 -35
14 -5 0 1 -6 15 -14z"/>
<path d="M6062 3180 c0 -14 2 -19 5 -12 2 6 2 18 0 25 -3 6 -5 1 -5 -13z"/>
<path d="M4225 3120 c27 -12 43 -12 25 0 -8 5 -22 9 -30 9 -10 0 -8 -3 5 -9z"/>
<path d="M5573 3120 c-13 -5 -23 -11 -23 -14 0 -7 40 6 46 15 6 10 6 10 -23
-1z"/>
<path d="M6032 3105 c0 -16 2 -22 5 -12 2 9 2 23 0 30 -3 6 -5 -1 -5 -18z"/>
<path d="M6024 3038 c-5 -7 -10 -52 -12 -101 -3 -53 -9 -90 -16 -92 -6 -2
-109 -5 -228 -8 -213 -4 -217 -4 -224 17 -5 14 -9 -3 -11 -52 -2 -40 1 -80 6
-90 8 -13 10 -10 7 15 -2 18 2 36 8 41 6 4 108 5 226 2 118 -4 211 -7 207 -8
-5 -1 -1 -9 7 -18 10 -9 16 -33 16 -59 0 -24 4 -46 10 -50 6 -3 10 73 12 205
2 115 2 210 1 210 -1 0 -5 -6 -9 -12z"/>
<path d="M3773 2990 c0 -30 2 -43 4 -27 2 15 2 39 0 55 -2 15 -4 2 -4 -28z"/>
<path d="M5541 3024 c0 -11 3 -14 6 -6 3 7 2 16 -1 19 -3 4 -6 -2 -5 -13z"/>
<path d="M3780 2832 c-13 -5 -13 -112 0 -112 6 0 10 9 10 20 0 44 32 50 248
47 111 -1 194 -5 184 -9 -14 -5 -13 -7 6 -7 23 -1 25 -15 27 -185 0 -46 2 -50
32 -63 25 -10 165 -13 626 -15 522 -2 596 -1 609 13 16 16 30 159 16 159 -4 0
-8 -13 -8 -28 0 -16 -6 -37 -14 -47 -13 -19 -37 -20 -600 -23 -451 -3 -593 -2
-616 8 -27 11 -30 18 -32 59 -1 25 -1 65 0 89 3 61 -10 80 -61 86 -47 7 -412
13 -427 8z"/>
<path d="M4108 2763 c17 -2 47 -2 65 0 17 2 3 4 -33 4 -36 0 -50 -2 -32 -4z"/>
<path d="M4278 2503 c7 -3 16 -2 19 1 4 3 -2 6 -13 5 -11 0 -14 -3 -6 -6z"/>
<path d="M3870 2146 c0 -8 -5 -16 -11 -18 -5 -2 -7 -11 -4 -21 6 -13 20 -17
59 -18 28 -1 103 -5 166 -9 l115 -7 -159 -1 c-88 -1 -157 -4 -155 -6 3 -3 85
-8 184 -11 99 -4 181 -8 183 -9 1 -2 3 -67 3 -145 0 -122 2 -141 15 -130 11 9
14 8 14 -3 0 -13 50 -16 332 -21 574 -12 887 -9 904 7 10 11 14 41 14 114 0
55 3 119 6 143 l6 44 176 -3 c96 -2 179 1 183 5 4 4 -48 7 -116 5 -84 -3 -125
0 -125 7 0 6 8 10 18 9 9 -1 67 0 129 0 104 2 112 3 118 23 13 41 -8 45 -130
21 -63 -13 -150 -25 -193 -29 l-79 -6 -6 -102 c-4 -57 -11 -115 -17 -129 l-10
-26 -383 0 c-211 0 -479 3 -596 7 -195 6 -213 8 -222 25 -6 11 -13 69 -16 129
-7 126 6 114 -133 123 -47 3 -119 15 -160 26 -89 24 -110 25 -110 6z"/>
<path d="M3927 1494 c-4 -4 -7 -17 -7 -30 0 -18 7 -23 45 -28 24 -4 47 -12 51
-17 3 -5 15 -7 27 -4 12 2 16 2 10 -1 -20 -9 -15 -26 5 -20 13 4 19 1 19 -9 0
-11 -6 -13 -21 -9 -12 3 -23 6 -26 6 -3 0 -30 0 -60 -2 -100 -3 -23 -19 98
-19 93 -1 112 2 112 14 0 8 9 15 21 15 11 0 17 -5 14 -10 -4 -6 -11 -8 -16 -5
-5 4 -9 1 -9 -5 0 -7 14 -10 38 -8 l37 3 3 -107 3 -106 37 -6 c20 -3 288 -8
595 -12 423 -4 565 -3 587 6 29 12 29 12 32 112 l3 100 130 -1 c72 -1 150 1
173 5 l42 7 0 54 c0 35 -5 55 -13 59 -7 2 -65 -7 -130 -21 -64 -14 -139 -25
-166 -25 -35 0 -51 -4 -55 -16 -3 -9 -6 -60 -6 -115 0 -96 -1 -100 -24 -109
-15 -5 -205 -5 -488 0 -255 5 -508 10 -564 10 -136 0 -135 -1 -142 138 -3 71
-9 112 -16 113 -6 1 -27 0 -46 -1 -29 -1 -177 25 -265 46 -11 3 -24 2 -28 -2z
m1883 -94 c0 -6 -33 -9 -82 -9 -67 2 -75 3 -43 9 62 11 125 11 125 0z m50 0
c0 -5 -7 -10 -15 -10 -8 0 -15 5 -15 10 0 6 7 10 15 10 8 0 15 -4 15 -10z
m-1701 -14 c-11 -9 -69 -15 -64 -6 3 6 20 10 37 10 17 0 29 -2 27 -4z m1548
-22 c-3 -3 -12 -4 -19 -1 -8 3 -5 6 6 6 11 1 17 -2 13 -5z"/>
<path d="M3932 1401 c-8 -5 7 -8 38 -10 28 -1 50 3 50 9 0 12 -69 13 -88 1z"/>
<path d="M3990 958 c0 -25 3 -29 10 -18 6 9 10 10 10 3 0 -9 34 -12 128 -10
l127 2 11 -50 12 -50 1 61 1 60 -82 3 c-46 2 -111 4 -146 4 -59 2 -77 9 -49
20 7 3 5 6 -5 6 -14 1 -18 -7 -18 -31z"/>
<path d="M5760 963 c0 -9 -7 -9 -149 -17 -86 -4 -96 -6 -103 -26 -4 -12 -4
-29 2 -38 7 -14 9 -10 10 16 0 28 3 32 23 31 12 -1 77 -1 145 -1 119 2 122 2
122 25 0 18 -2 19 -11 7 -8 -11 -12 -12 -16 -2 -5 13 -23 17 -23 5z"/>
<path d="M5510 841 c0 -6 -10 -16 -22 -21 l-23 -9 23 0 c22 -1 41 23 28 36 -3
4 -6 1 -6 -6z"/>
</g>
</svg>
